<svg width="32" height="32" viewBox="0 0 32 32" fill="none" xmlns="http://www.w3.org/2000/svg">
<g clip-path="url(#clip0_60_1434)">
<path d="M17.3334 1.33156C17.3334 0.977934 17.4738 0.638796 17.7239 0.388747C17.9739 0.138699 18.3131 -0.00177696 18.6667 -0.00177696C22.2017 0.00210517 25.5908 1.40811 28.0905 3.90775C30.5901 6.4074 31.9961 9.79653 32 13.3316C32 13.6852 31.8595 14.0243 31.6095 14.2744C31.3595 14.5244 31.0203 14.6649 30.6667 14.6649C30.3131 14.6649 29.9739 14.5244 29.7239 14.2744C29.4738 14.0243 29.3334 13.6852 29.3334 13.3316C29.3302 10.5036 28.2054 7.79229 26.2057 5.79259C24.206 3.79289 21.4947 2.66807 18.6667 2.66489C18.3131 2.66489 17.9739 2.52441 17.7239 2.27437C17.4738 2.02432 17.3334 1.68518 17.3334 1.33156ZM18.6667 7.99822C20.0812 7.99822 21.4377 8.56013 22.4379 9.56032C23.4381 10.5605 24 11.9171 24 13.3316C24 13.6852 24.1405 14.0243 24.3905 14.2744C24.6406 14.5244 24.9797 14.6649 25.3334 14.6649C25.687 14.6649 26.0261 14.5244 26.2762 14.2744C26.5262 14.0243 26.6667 13.6852 26.6667 13.3316C26.6646 11.2105 25.821 9.17687 24.3212 7.67704C22.8214 6.17721 20.7878 5.33367 18.6667 5.33156C18.3131 5.33156 17.9739 5.47203 17.7239 5.72208C17.4738 5.97213 17.3334 6.31127 17.3334 6.66489C17.3334 7.01851 17.4738 7.35765 17.7239 7.6077C17.9739 7.85775 18.3131 7.99822 18.6667 7.99822ZM30.7907 22.3169C31.5634 23.0917 31.9973 24.1413 31.9973 25.2356C31.9973 26.3298 31.5634 27.3794 30.7907 28.1542L29.5774 29.5529C18.6574 40.0076 -7.91598 13.4409 2.37736 2.48622L3.91069 1.15289C4.68638 0.401793 5.7266 -0.0137115 6.80629 -0.0037305C7.88599 0.00625051 8.91835 0.440914 9.68002 1.20622C9.72136 1.24756 12.192 4.45689 12.192 4.45689C12.9251 5.22706 13.3332 6.25013 13.3315 7.31343C13.3298 8.37673 12.9183 9.39845 12.1827 10.1662L10.6387 12.1076C11.4932 14.1837 12.7494 16.0706 14.3354 17.6597C15.9213 19.2488 17.8056 20.5089 19.88 21.3676L21.8334 19.8142C22.6012 19.0792 23.6228 18.6682 24.6858 18.6667C25.7487 18.6652 26.7714 19.0733 27.5414 19.8062C27.5414 19.8062 30.7494 22.2756 30.7907 22.3169ZM28.956 24.2556C28.956 24.2556 25.7654 21.8009 25.724 21.7596C25.4493 21.4872 25.0782 21.3344 24.6914 21.3344C24.3045 21.3344 23.9334 21.4872 23.6587 21.7596C23.6227 21.7969 20.9334 23.9396 20.9334 23.9396C20.7521 24.0838 20.5364 24.1784 20.3076 24.2139C20.0787 24.2494 19.8445 24.2247 19.628 24.1422C16.9406 23.1416 14.4997 21.5752 12.4705 19.549C10.4413 17.5228 8.87122 15.0841 7.86669 12.3982C7.77762 12.1788 7.74858 11.9397 7.78256 11.7053C7.81654 11.471 7.91231 11.25 8.06002 11.0649C8.06002 11.0649 10.2027 8.37422 10.2387 8.33956C10.511 8.06487 10.6639 7.69371 10.6639 7.30689C10.6639 6.92007 10.511 6.54891 10.2387 6.27422C10.1974 6.23422 7.74269 3.04089 7.74269 3.04089C7.46389 2.7909 7.10003 2.65702 6.72569 2.66669C6.35134 2.67635 5.99488 2.82884 5.72936 3.09289L4.19602 4.42622C-3.32665 13.4716 19.7014 35.2222 27.628 27.7316L28.8427 26.3316C29.1273 26.0679 29.2983 25.7039 29.3194 25.3165C29.3406 24.9291 29.2103 24.5486 28.956 24.2556Z" fill="white"/>
</g>
<defs>
<clipPath id="clip0_60_1434">
<rect width="32" height="32" fill="white"/>
</clipPath>
</defs>
</svg>
