<svg width="32" height="32" viewBox="0 0 32 32" fill="none" xmlns="http://www.w3.org/2000/svg">
<g clip-path="url(#clip0_1_824)">
<path d="M17.333 1.33339C17.333 0.979765 17.4735 0.640627 17.7235 0.390578C17.9736 0.14053 18.3127 5.40949e-05 18.6663 5.40949e-05C22.2014 0.00393622 25.5905 1.40994 28.0901 3.90958C30.5898 6.40923 31.9958 9.79836 31.9997 13.3334C31.9997 13.687 31.8592 14.0261 31.6091 14.2762C31.3591 14.5262 31.0199 14.6667 30.6663 14.6667C30.3127 14.6667 29.9736 14.5262 29.7235 14.2762C29.4735 14.0261 29.333 13.687 29.333 13.3334C29.3298 10.5054 28.205 7.79412 26.2053 5.79442C24.2056 3.79472 21.4943 2.6699 18.6663 2.66672C18.3127 2.66672 17.9736 2.52625 17.7235 2.2762C17.4735 2.02615 17.333 1.68701 17.333 1.33339ZM18.6663 8.00005C20.0808 8.00005 21.4374 8.56196 22.4376 9.56215C23.4378 10.5623 23.9997 11.9189 23.9997 13.3334C23.9997 13.687 24.1401 14.0261 24.3902 14.2762C24.6402 14.5262 24.9794 14.6667 25.333 14.6667C25.6866 14.6667 26.0258 14.5262 26.2758 14.2762C26.5258 14.0261 26.6663 13.687 26.6663 13.3334C26.6642 11.2123 25.8207 9.17871 24.3208 7.67887C22.821 6.17904 20.7874 5.33551 18.6663 5.33339C18.3127 5.33339 17.9736 5.47386 17.7235 5.72391C17.4735 5.97396 17.333 6.3131 17.333 6.66672C17.333 7.02034 17.4735 7.35948 17.7235 7.60953C17.9736 7.85958 18.3127 8.00005 18.6663 8.00005ZM30.7903 22.3187C31.563 23.0935 31.9969 24.1431 31.9969 25.2374C31.9969 26.3316 31.563 27.3812 30.7903 28.1561L29.577 29.5547C18.657 40.0094 -7.91635 13.4427 2.37699 2.48805L3.91032 1.15472C4.68601 0.403624 5.72623 -0.0118805 6.80593 -0.00189945C7.88562 0.00808157 8.91798 0.442745 9.67966 1.20805C9.72099 1.24939 12.1917 4.45872 12.1917 4.45872C12.9248 5.22889 13.3329 6.25196 13.3311 7.31526C13.3294 8.37856 12.9179 9.40028 12.1823 10.1681L10.6383 12.1094C11.4928 14.1855 12.7491 16.0724 14.335 17.6615C15.9209 19.2506 17.8052 20.5107 19.8797 21.3694L21.833 19.8161C22.6009 19.081 23.6224 18.67 24.6854 18.6686C25.7484 18.6671 26.7711 19.0752 27.541 19.8081C27.541 19.8081 30.749 22.2774 30.7903 22.3187ZM28.9557 24.2574C28.9557 24.2574 25.765 21.8027 25.7237 21.7614C25.449 21.489 25.0778 21.3362 24.691 21.3362C24.3042 21.3362 23.933 21.489 23.6583 21.7614C23.6223 21.7987 20.933 23.9414 20.933 23.9414C20.7518 24.0856 20.5361 24.1802 20.3072 24.2157C20.0783 24.2513 19.8441 24.2266 19.6277 24.1441C16.9403 23.1435 14.4993 21.577 12.4701 19.5508C10.4409 17.5246 8.87086 15.086 7.86632 12.4001C7.77725 12.1807 7.74822 11.9415 7.78219 11.7072C7.81617 11.4728 7.91194 11.2518 8.05966 11.0667C8.05966 11.0667 10.2023 8.37605 10.2383 8.34139C10.5107 8.0667 10.6635 7.69554 10.6635 7.30872C10.6635 6.9219 10.5107 6.55074 10.2383 6.27605C10.197 6.23605 7.74232 3.04272 7.74232 3.04272C7.46352 2.79273 7.09966 2.65885 6.72532 2.66852C6.35098 2.67818 5.99451 2.83067 5.72899 3.09472L4.19566 4.42805C-3.32701 13.4734 19.701 35.2241 27.6277 27.7334L28.8423 26.3334C29.127 26.0697 29.2979 25.7057 29.3191 25.3183C29.3402 24.9309 29.2099 24.5505 28.9557 24.2574Z" fill="#414141"/>
</g>
<defs>
<clipPath id="clip0_1_824">
<rect width="32" height="32" fill="white" transform="translate(-0.000244141)"/>
</clipPath>
</defs>
</svg>
