<svg width="48" height="49" viewBox="0 0 48 49" fill="none" xmlns="http://www.w3.org/2000/svg">
<rect y="0.629883" width="48" height="48" rx="24" fill="#FFA439"/>
<path d="M31.3083 30.9047C31.3083 31.2047 31.2417 31.5131 31.1 31.8131C30.9583 32.1131 30.775 32.3964 30.5333 32.6631C30.125 33.1131 29.675 33.4381 29.1667 33.6464C28.6667 33.8547 28.125 33.9631 27.5417 33.9631C26.6917 33.9631 25.7833 33.7631 24.825 33.3547C23.8667 32.9464 22.9083 32.3964 21.9583 31.7047C21 31.0047 20.0917 30.2297 19.225 29.3714C18.3667 28.5047 17.5917 27.5964 16.9 26.6464C16.2167 25.6964 15.6667 24.7464 15.2667 23.8047C14.8667 22.8547 14.6667 21.9464 14.6667 21.0797C14.6667 20.5131 14.7667 19.9714 14.9667 19.4714C15.1667 18.9631 15.4833 18.4964 15.925 18.0797C16.4583 17.5547 17.0417 17.2964 17.6583 17.2964C17.8917 17.2964 18.125 17.3464 18.3333 17.4464C18.55 17.5464 18.7417 17.6964 18.8917 17.9131L20.825 20.6381C20.975 20.8464 21.0833 21.0381 21.1583 21.2214C21.2333 21.3964 21.275 21.5714 21.275 21.7297C21.275 21.9297 21.2167 22.1297 21.1 22.3214C20.9917 22.5131 20.8333 22.7131 20.6333 22.9131L20 23.5714C19.9083 23.6631 19.8667 23.7714 19.8667 23.9047C19.8667 23.9714 19.875 24.0297 19.8917 24.0964C19.9167 24.1631 19.9417 24.2131 19.9583 24.2631C20.1083 24.5381 20.3667 24.8964 20.7333 25.3297C21.1083 25.7631 21.5083 26.2047 21.9417 26.6464C22.3917 27.0881 22.825 27.4964 23.2667 27.8714C23.7 28.2381 24.0583 28.4881 24.3417 28.6381C24.3833 28.6547 24.4333 28.6797 24.4917 28.7047C24.5583 28.7297 24.625 28.7381 24.7 28.7381C24.8417 28.7381 24.95 28.6881 25.0417 28.5964L25.675 27.9714C25.8833 27.7631 26.0833 27.6047 26.275 27.5047C26.4667 27.3881 26.6583 27.3297 26.8667 27.3297C27.025 27.3297 27.1917 27.3631 27.375 27.4381C27.5583 27.5131 27.75 27.6214 27.9583 27.7631L30.7167 29.7214C30.9333 29.8714 31.0833 30.0464 31.175 30.2547C31.2583 30.4631 31.3083 30.6714 31.3083 30.9047Z" stroke="white" stroke-width="1.2" stroke-miterlimit="10"/>
<path d="M28.4167 23.1296C28.4167 22.6296 28.025 21.8629 27.4417 21.2379C26.9084 20.6629 26.2 20.2129 25.5 20.2129" stroke="white" stroke-width="1.2" stroke-linecap="round" stroke-linejoin="round"/>
<path d="M31.3334 23.1297C31.3334 19.9047 28.725 17.2964 25.5 17.2964" stroke="white" stroke-width="1.2" stroke-linecap="round" stroke-linejoin="round"/>
</svg>
