<svg width="101" height="99" viewBox="0 0 101 99" fill="none" xmlns="http://www.w3.org/2000/svg">
<g filter="url(#filter0_d_2005_12474)">
<ellipse cx="16.9141" cy="16.9276" rx="16.9141" ry="16.9276" transform="matrix(-0.997853 0.0654935 0.0382626 0.999268 66.4014 27.4159)" fill="#FFA439"/>
</g>
<g filter="url(#filter1_d_2005_12474)">
<path d="M16.8752 47.3422C17.3583 65.3786 32.8045 79.1752 51.3752 78.1578C69.9459 77.1405 84.6088 61.6943 84.1257 43.6578C83.6426 25.6214 68.1964 11.8248 49.6257 12.8422C31.055 13.8595 16.3921 29.3057 16.8752 47.3422ZM67.6175 44.5622C67.8634 53.7438 60.3992 61.6067 50.9457 62.1246C41.4923 62.6425 33.6293 55.6193 33.3834 46.4378C33.1375 37.2563 40.6017 29.3933 50.0552 28.8754C59.5086 28.3575 67.3716 35.3807 67.6175 44.5622Z" fill="white"/>
</g>
<defs>
<filter id="filter0_d_2005_12474" x="23.2812" y="20.4868" width="53.7803" height="53.9042" filterUnits="userSpaceOnUse" color-interpolation-filters="sRGB">
<feFlood flood-opacity="0" result="BackgroundImageFix"/>
<feColorMatrix in="SourceAlpha" type="matrix" values="0 0 0 0 0 0 0 0 0 0 0 0 0 0 0 0 0 0 127 0" result="hardAlpha"/>
<feOffset dy="2"/>
<feGaussianBlur stdDeviation="5"/>
<feComposite in2="hardAlpha" operator="out"/>
<feColorMatrix type="matrix" values="0 0 0 0 0.486275 0 0 0 0 0.552941 0 0 0 0 0.709804 0 0 0 0.12 0"/>
<feBlend mode="normal" in2="BackgroundImageFix" result="effect1_dropShadow_2005_12474"/>
<feBlend mode="normal" in="SourceGraphic" in2="effect1_dropShadow_2005_12474" result="shape"/>
</filter>
<filter id="filter1_d_2005_12474" x="0.863281" y="0.789307" width="99.2744" height="97.4214" filterUnits="userSpaceOnUse" color-interpolation-filters="sRGB">
<feFlood flood-opacity="0" result="BackgroundImageFix"/>
<feColorMatrix in="SourceAlpha" type="matrix" values="0 0 0 0 0 0 0 0 0 0 0 0 0 0 0 0 0 0 127 0" result="hardAlpha"/>
<feOffset dy="4"/>
<feGaussianBlur stdDeviation="8"/>
<feComposite in2="hardAlpha" operator="out"/>
<feColorMatrix type="matrix" values="0 0 0 0 0.94902 0 0 0 0 0.219608 0 0 0 0 0.278431 0 0 0 0.1 0"/>
<feBlend mode="normal" in2="BackgroundImageFix" result="effect1_dropShadow_2005_12474"/>
<feBlend mode="normal" in="SourceGraphic" in2="effect1_dropShadow_2005_12474" result="shape"/>
</filter>
</defs>
</svg>
