<svg width="40" height="21" viewBox="0 0 40 21" fill="none" xmlns="http://www.w3.org/2000/svg">
<path d="M36.8946 0.512791C37.0635 0.350216 37.2641 0.221258 37.4848 0.133272C37.7055 0.0452883 37.942 2.48851e-07 38.1809 2.38409e-07C38.4198 2.27967e-07 38.6563 0.0452883 38.877 0.133272C39.0977 0.221258 39.2983 0.350216 39.4672 0.512791C39.6361 0.675366 39.7701 0.86837 39.8615 1.08079C39.9529 1.2932 40 1.52086 40 1.75078C40 1.98069 39.9529 2.20836 39.8615 2.42077C39.7701 2.63319 39.6361 2.82619 39.4672 2.98877L21.2863 20.4868C21.1174 20.6495 20.9169 20.7786 20.6962 20.8666C20.4755 20.9547 20.2389 21 20 21C19.7611 21 19.5245 20.9547 19.3038 20.8666C19.0831 20.7786 18.8825 20.6495 18.7137 20.4868L0.532801 2.98877C0.191654 2.66043 -8.30624e-07 2.21511 -8.4141e-07 1.75078C-8.52196e-07 1.28645 0.191654 0.841127 0.532801 0.512793C0.873949 0.18446 1.33664 1.84892e-06 1.8191 1.82783e-06C2.30156 1.80674e-06 2.76425 0.18446 3.1054 0.512792L20 16.775L36.8946 0.512791Z" fill="white"/>
</svg>
