<svg width="107" height="48" viewBox="0 0 107 48" fill="none" xmlns="http://www.w3.org/2000/svg">
<path d="M47.5449 24.5124C31.5902 24.5124 15.8483 24.5124 0.106436 24.5124C0.0745051 24.374 0.0372526 24.2357 0 24.0973C0.750373 23.7461 1.47946 23.3522 2.2458 23.0489C20.1643 15.9496 38.0934 8.86632 56.0119 1.7564C58.3375 0.830407 60.6206 0.250331 62.7493 2.09167C64.9844 4.02881 64.6438 6.41829 63.9094 8.9355C62.4779 13.8369 61.1581 18.7649 59.6893 24.0547C75.6546 24.0547 91.2635 24.0547 106.878 24.0547C106.92 24.2516 106.957 24.4539 107 24.6508C103.78 25.9599 100.566 27.2904 97.3303 28.5729C81.9556 34.6611 66.581 40.7545 51.1903 46.7894C49.9078 47.2897 48.4283 47.758 47.1138 47.5983C43.7239 47.1886 42.138 44.1392 43.1704 40.2968C44.3412 35.9436 45.6184 31.6223 46.8424 27.285C47.0766 26.4442 47.2735 25.5927 47.5449 24.5124Z" fill="white"/>
</svg>
