<svg width="161" height="125" viewBox="0 0 161 125" fill="none" xmlns="http://www.w3.org/2000/svg">
<path d="M62.0121 42.9804C41.3703 42.9804 21.004 42.9804 0.637703 42.9804C0.596392 42.7976 0.548196 42.6147 0.5 42.4319C1.47081 41.9677 2.41408 41.4473 3.40554 41.0465C26.5879 31.6649 49.784 22.3045 72.9664 12.9088C75.9752 11.6852 78.9289 10.9186 81.683 13.3519C84.5748 15.9118 84.1341 19.0694 83.184 22.3959C81.3319 28.8729 79.6243 35.3852 77.724 42.3756C98.3795 42.3756 118.574 42.3756 138.775 42.3756C138.83 42.6358 138.878 42.9031 138.933 43.1633C134.768 44.8933 130.609 46.6515 126.423 48.3463C106.532 56.3917 86.6403 64.4441 66.7284 72.4191C65.0691 73.0802 63.155 73.699 61.4544 73.488C57.0685 72.9465 55.0168 68.9168 56.3525 63.8393C57.8672 58.0866 59.5196 52.376 61.1032 46.6444C61.4062 45.5333 61.6609 44.4081 62.0121 42.9804Z" fill="white"/>
<path d="M117.458 12.0509C117.424 18.6265 112.288 23.8939 105.898 23.915C99.5018 23.9361 94.0075 18.2959 94.0901 11.8189C94.1796 5.20819 99.5913 -0.101462 106.125 0.0180933C112.535 0.123583 117.493 5.39807 117.458 12.0509Z" fill="white"/>
<path d="M8.99363 94.2826H3.20892V100.151H0.5V86.3599H3.20892V92.0309H8.99363V86.3599H11.7025V100.151H8.99363V94.2826Z" fill="white"/>
<path d="M24.4873 100.148H21.7587V98.7663C21.0806 99.6964 19.9014 100.289 18.5682 100.289C16.0722 100.289 14.2739 98.6291 14.2739 95.6246V89.2041H16.9829V95.2298C16.9829 96.9897 17.9295 97.9365 19.3609 97.9365C20.8317 97.9365 21.7587 96.9897 21.7587 95.2298V89.2041H24.4873V100.148Z" fill="white"/>
<path d="M42.1459 94.1057C42.1459 92.3659 41.1993 91.4592 39.7679 91.4592C38.3168 91.4592 37.3701 92.3692 37.3701 94.1057V100.151H34.6612V94.1057C34.6612 92.3659 33.7146 91.4592 32.2831 91.4592C30.8124 91.4592 29.8657 92.3692 29.8657 94.1057V100.151H27.1568V89.2041H29.8657V90.529C30.5438 89.619 31.6837 89.0469 33.0168 89.0469C34.6808 89.0469 36.0533 89.7763 36.7903 91.1413C37.488 89.8967 38.8998 89.0469 40.4656 89.0469C43.0369 89.0469 44.8549 90.7064 44.8549 93.7309V100.151H42.1459V94.1057Z" fill="white"/>
<path d="M51.6223 89.0269C53.3453 89.0269 54.5245 89.8566 55.1632 90.7667V89.2042H57.8918V100.148H55.1632V98.5489C54.5245 99.4957 53.306 100.325 51.6027 100.325C48.8938 100.325 46.7286 98.0537 46.7286 94.6344C46.7286 91.215 48.8937 89.0269 51.6223 89.0269ZM52.3168 91.4559C50.8657 91.4559 49.4932 92.5633 49.4932 94.6377C49.4932 96.7121 50.8657 97.8965 52.3168 97.8965C53.8072 97.8965 55.16 96.7489 55.16 94.6745C55.16 92.6001 53.8072 91.4559 52.3168 91.4559Z" fill="white"/>
<path d="M68.0429 94.1057C68.0429 92.3458 67.0963 91.3989 65.6648 91.3989C64.1941 91.3989 63.2474 92.3458 63.2474 94.1057V100.151H60.5385V89.2041H63.2474V90.5692C63.9451 89.6391 65.1047 89.0469 66.4772 89.0469C68.9732 89.0469 70.7518 90.7064 70.7518 93.7309V100.151H68.0429V94.1057Z" fill="white"/>
<path d="M82.8977 94.8548H80.6343V100.151H77.9254V86.3599H82.8977C86.1471 86.3599 87.7718 88.2368 87.7718 90.6257C87.7718 92.7202 86.3797 94.8548 82.8977 94.8548ZM82.7798 92.6231C84.3095 92.6231 84.9843 91.8536 84.9843 90.6291C84.9843 89.3644 84.3062 88.6149 82.7798 88.6149H80.6343V92.6265H82.7798V92.6231Z" fill="white"/>
<path d="M94.4442 100.329C91.3488 100.329 89.01 98.1173 89.01 94.6778C89.01 91.2217 91.4274 89.0269 94.5229 89.0269C97.6183 89.0269 100.036 91.2183 100.036 94.6778C100.036 98.1139 97.5593 100.329 94.4442 100.329ZM94.4442 97.9165C95.8757 97.9165 97.2482 96.8492 97.2482 94.6778C97.2482 92.4864 95.9117 91.4392 94.4835 91.4392C93.0521 91.4392 91.755 92.4864 91.755 94.6778C91.755 96.8492 92.9931 97.9165 94.4442 97.9165Z" fill="white"/>
<path d="M100.825 89.2041H103.573L105.47 97.5417L107.52 89.2041H110.383L112.395 97.5217L114.291 89.2041H116.882L113.747 100.148H110.826L108.873 92.503L106.921 100.148H103.98L100.825 89.2041Z" fill="white"/>
<path d="M123.03 100.329C119.915 100.329 117.652 98.1173 117.652 94.6778C117.652 91.2217 119.856 89.0269 123.03 89.0269C126.126 89.0269 128.311 91.1815 128.311 94.4403C128.311 94.795 128.291 95.1496 128.232 95.5076H120.397C120.531 97.1269 121.615 98.037 122.968 98.037C124.128 98.037 124.767 97.4448 125.114 96.7121H128.036C127.459 98.7262 125.68 100.329 123.03 100.329ZM120.42 93.6507H125.507C125.467 92.2087 124.347 91.2986 122.955 91.2986C121.658 91.2986 120.633 92.1485 120.42 93.6507Z" fill="white"/>
<path d="M132.991 100.148H130.283V89.2041H132.991V90.9038C133.67 89.7763 134.79 89.0469 136.28 89.0469V91.951H135.563C133.958 91.951 132.991 92.5833 132.991 94.6979V100.148Z" fill="white"/>
<path d="M142.779 100.329C139.664 100.329 137.4 98.1173 137.4 94.6778C137.4 91.2217 139.605 89.0269 142.779 89.0269C145.874 89.0269 148.059 91.1815 148.059 94.4403C148.059 94.795 148.04 95.1496 147.981 95.5076H140.145C140.28 97.1269 141.364 98.037 142.717 98.037C143.876 98.037 144.515 97.4448 144.862 96.7121H147.784C147.208 98.7262 145.429 100.329 142.779 100.329ZM140.168 93.6507H145.255C145.216 92.2087 144.096 91.2986 142.704 91.2986C141.407 91.2986 140.381 92.1485 140.168 93.6507Z" fill="white"/>
<path d="M154.25 89.0266C155.662 89.0266 157.015 89.6991 157.752 90.7262V85.5303H160.5V100.151H157.752V98.5286C157.113 99.5356 155.914 100.325 154.23 100.325C151.502 100.325 149.337 98.0535 149.337 94.6341C149.337 91.2147 151.502 89.0266 154.25 89.0266ZM154.925 91.4556C153.474 91.4556 152.101 92.5631 152.101 94.6374C152.101 96.7118 153.474 97.8962 154.925 97.8962C156.415 97.8962 157.768 96.7486 157.768 94.6742C157.768 92.5999 156.415 91.4556 154.925 91.4556Z" fill="white"/>
<path d="M56.6999 118.938H50.9152V124.807H48.2062V111.016H50.9152V116.687H56.6999V111.016H59.4088V124.807H56.6999V118.938Z" fill="white"/>
<path d="M66.7592 124.984C63.6441 124.984 61.3807 122.773 61.3807 119.333C61.3807 115.877 63.5852 113.682 66.7592 113.682C69.8547 113.682 72.0395 115.837 72.0395 119.096C72.0395 119.45 72.0198 119.805 71.9609 120.163H64.1289C64.2632 121.782 65.3474 122.692 66.7002 122.692C67.8598 122.692 68.4985 122.1 68.8458 121.367H71.7676C71.1878 123.381 69.4092 124.984 66.7592 124.984ZM64.1485 118.306H69.2356C69.1963 116.864 68.076 115.954 66.6839 115.954C65.3835 115.954 64.3582 116.804 64.1485 118.306Z" fill="white"/>
<path d="M78.2074 113.682C79.9304 113.682 81.1096 114.512 81.7483 115.422V113.859H84.4769V124.803H81.7483V123.204C81.1096 124.151 79.8911 124.981 78.1878 124.981C75.4788 124.981 73.3137 122.709 73.3137 119.29C73.3137 115.87 75.4821 113.682 78.2074 113.682ZM78.9051 116.111C77.454 116.111 76.0815 117.219 76.0815 119.293C76.0815 121.367 77.454 122.552 78.9051 122.552C80.3955 122.552 81.7483 121.404 81.7483 119.33C81.7483 117.255 80.3955 116.111 78.9051 116.111Z" fill="white"/>
<path d="M87.1236 110.186H89.8325V124.807H87.1236V110.186Z" fill="white"/>
<path d="M92.9279 116.131H91.6505V113.86H92.9279V111.153H95.6565V113.86H98.0542V116.131H95.6565V121.428C95.6565 122.157 95.948 122.475 96.7964 122.475H98.0542V124.807H96.3509C94.3004 124.807 92.9279 123.917 92.9279 121.408V116.131Z" fill="white"/>
<path d="M100.007 110.186H102.715V115.225C103.413 114.295 104.612 113.702 106.043 113.702C108.461 113.702 110.22 115.362 110.22 118.386V124.807H107.511V118.761C107.511 117.001 106.564 116.055 105.133 116.055C103.662 116.055 102.715 117.001 102.715 118.761V124.807H100.007V110.186Z" fill="white"/>
</svg>
