<svg width="97" height="97" viewBox="0 0 97 97" fill="none" xmlns="http://www.w3.org/2000/svg">
<g filter="url(#filter0_d_34_2178)">
<circle cx="48.5" cy="48.5005" r="39.6001" transform="rotate(165 48.5 48.5005)" fill="url(#paint0_linear_34_2178)"/>
</g>
<path d="M68 31.5V39C68 39.3978 67.8379 39.7794 67.5494 40.0607C67.2609 40.342 66.8696 40.5 66.4615 40.5C66.0535 40.5 65.6622 40.342 65.3737 40.0607C65.0852 39.7794 64.9231 39.3978 64.9231 39V33H58.7692C58.3612 33 57.9699 32.842 57.6814 32.5607C57.3929 32.2794 57.2308 31.8978 57.2308 31.5C57.2308 31.1022 57.3929 30.7206 57.6814 30.4393C57.9699 30.158 58.3612 30 58.7692 30H66.4615C66.8696 30 67.2609 30.158 67.5494 30.4393C67.8379 30.7206 68 31.1022 68 31.5ZM37.2308 60H31.0769V54C31.0769 53.6022 30.9148 53.2206 30.6263 52.9393C30.3378 52.658 29.9465 52.5 29.5385 52.5C29.1304 52.5 28.7391 52.658 28.4506 52.9393C28.1621 53.2206 28 53.6022 28 54V61.5C28 61.8978 28.1621 62.2794 28.4506 62.5607C28.7391 62.842 29.1304 63 29.5385 63H37.2308C37.6388 63 38.0301 62.842 38.3186 62.5607C38.6071 62.2794 38.7692 61.8978 38.7692 61.5C38.7692 61.1022 38.6071 60.7206 38.3186 60.4393C38.0301 60.158 37.6388 60 37.2308 60ZM66.4615 52.5C66.0535 52.5 65.6622 52.658 65.3737 52.9393C65.0852 53.2206 64.9231 53.6022 64.9231 54V60H58.7692C58.3612 60 57.9699 60.158 57.6814 60.4393C57.3929 60.7206 57.2308 61.1022 57.2308 61.5C57.2308 61.8978 57.3929 62.2794 57.6814 62.5607C57.9699 62.842 58.3612 63 58.7692 63H66.4615C66.8696 63 67.2609 62.842 67.5494 62.5607C67.8379 62.2794 68 61.8978 68 61.5V54C68 53.6022 67.8379 53.2206 67.5494 52.9393C67.2609 52.658 66.8696 52.5 66.4615 52.5ZM29.5385 40.5C29.9465 40.5 30.3378 40.342 30.6263 40.0607C30.9148 39.7794 31.0769 39.3978 31.0769 39V33H37.2308C37.6388 33 38.0301 32.842 38.3186 32.5607C38.6071 32.2794 38.7692 31.8978 38.7692 31.5C38.7692 31.1022 38.6071 30.7206 38.3186 30.4393C38.0301 30.158 37.6388 30 37.2308 30H29.5385C29.1304 30 28.7391 30.158 28.4506 30.4393C28.1621 30.7206 28 31.1022 28 31.5V39C28 39.3978 28.1621 39.7794 28.4506 40.0607C28.7391 40.342 29.1304 40.5 29.5385 40.5ZM38.7692 37.5C38.3612 37.5 37.9699 37.658 37.6814 37.9393C37.3929 38.2206 37.2308 38.6022 37.2308 39V54C37.2308 54.3978 37.3929 54.7794 37.6814 55.0607C37.9699 55.342 38.3612 55.5 38.7692 55.5C39.1773 55.5 39.5686 55.342 39.8571 55.0607C40.1456 54.7794 40.3077 54.3978 40.3077 54V39C40.3077 38.6022 40.1456 38.2206 39.8571 37.9393C39.5686 37.658 39.1773 37.5 38.7692 37.5ZM58.7692 54V39C58.7692 38.6022 58.6071 38.2206 58.3186 37.9393C58.0301 37.658 57.6388 37.5 57.2308 37.5C56.8227 37.5 56.4314 37.658 56.1429 37.9393C55.8544 38.2206 55.6923 38.6022 55.6923 39V54C55.6923 54.3978 55.8544 54.7794 56.1429 55.0607C56.4314 55.342 56.8227 55.5 57.2308 55.5C57.6388 55.5 58.0301 55.342 58.3186 55.0607C58.6071 54.7794 58.7692 54.3978 58.7692 54ZM51.0769 37.5C50.6689 37.5 50.2776 37.658 49.9891 37.9393C49.7005 38.2206 49.5385 38.6022 49.5385 39V54C49.5385 54.3978 49.7005 54.7794 49.9891 55.0607C50.2776 55.342 50.6689 55.5 51.0769 55.5C51.4849 55.5 51.8763 55.342 52.1648 55.0607C52.4533 54.7794 52.6154 54.3978 52.6154 54V39C52.6154 38.6022 52.4533 38.2206 52.1648 37.9393C51.8763 37.658 51.4849 37.5 51.0769 37.5ZM44.9231 37.5C44.5151 37.5 44.1237 37.658 43.8352 37.9393C43.5467 38.2206 43.3846 38.6022 43.3846 39V54C43.3846 54.3978 43.5467 54.7794 43.8352 55.0607C44.1237 55.342 44.5151 55.5 44.9231 55.5C45.3311 55.5 45.7224 55.342 46.0109 55.0607C46.2995 54.7794 46.4615 54.3978 46.4615 54V39C46.4615 38.6022 46.2995 38.2206 46.0109 37.9393C45.7224 37.658 45.3311 37.5 44.9231 37.5Z" fill="white"/>
<defs>
<filter id="filter0_d_34_2178" x="4.89014" y="4.89062" width="87.2197" height="87.2197" filterUnits="userSpaceOnUse" color-interpolation-filters="sRGB">
<feFlood flood-opacity="0" result="BackgroundImageFix"/>
<feColorMatrix in="SourceAlpha" type="matrix" values="0 0 0 0 0 0 0 0 0 0 0 0 0 0 0 0 0 0 127 0" result="hardAlpha"/>
<feOffset/>
<feGaussianBlur stdDeviation="2"/>
<feComposite in2="hardAlpha" operator="out"/>
<feColorMatrix type="matrix" values="0 0 0 0 0 0 0 0 0 0 0 0 0 0 0 0 0 0 0.25 0"/>
<feBlend mode="normal" in2="BackgroundImageFix" result="effect1_dropShadow_34_2178"/>
<feBlend mode="normal" in="SourceGraphic" in2="effect1_dropShadow_34_2178" result="shape"/>
</filter>
<linearGradient id="paint0_linear_34_2178" x1="47.4813" y1="10.7978" x2="24.2091" y2="80.353" gradientUnits="userSpaceOnUse">
<stop stop-color="#201457"/>
<stop offset="0.401377" stop-color="#87037B"/>
<stop offset="0.761458" stop-color="#CE0037"/>
<stop offset="1" stop-color="#FF6900"/>
</linearGradient>
</defs>
</svg>
