<svg width="77" height="77" viewBox="0 0 77 77" fill="none" xmlns="http://www.w3.org/2000/svg">
<g filter="url(#filter0_d_13_2168)">
<ellipse cx="12.5924" cy="12.9986" rx="12.5924" ry="12.9986" transform="matrix(-1 0 0 1 50.4774 22.2429)" fill="#FFA439"/>
</g>
<g filter="url(#filter1_d_13_2168)">
<path d="M13.0494 35.0249C12.895 48.8747 23.9972 60.2273 37.847 60.3818C51.6968 60.5362 63.0495 49.434 63.2039 35.5842C63.3584 21.7344 52.2561 10.3817 38.4063 10.2272C24.5565 10.0728 13.2038 21.1751 13.0494 35.0249ZM50.8923 35.4469C50.8137 42.4972 45.0346 48.1488 37.9843 48.0702C30.934 47.9916 25.2824 42.2124 25.361 35.1622C25.4396 28.1119 31.2187 22.4602 38.269 22.5388C45.3193 22.6175 50.971 28.3966 50.8923 35.4469Z" fill="white"/>
</g>
<defs>
<filter id="filter0_d_13_2168" x="17.1683" y="15.7435" width="41.4332" height="42.2456" filterUnits="userSpaceOnUse" color-interpolation-filters="sRGB">
<feFlood flood-opacity="0" result="BackgroundImageFix"/>
<feColorMatrix in="SourceAlpha" type="matrix" values="0 0 0 0 0 0 0 0 0 0 0 0 0 0 0 0 0 0 127 0" result="hardAlpha"/>
<feOffset dy="1.62483"/>
<feGaussianBlur stdDeviation="4.06208"/>
<feComposite in2="hardAlpha" operator="out"/>
<feColorMatrix type="matrix" values="0 0 0 0 0.486275 0 0 0 0 0.552941 0 0 0 0 0.709804 0 0 0 0.12 0"/>
<feBlend mode="normal" in2="BackgroundImageFix" result="effect1_dropShadow_13_2168"/>
<feBlend mode="normal" in="SourceGraphic" in2="effect1_dropShadow_13_2168" result="shape"/>
</filter>
<filter id="filter1_d_13_2168" x="0.0491781" y="0.476665" width="76.155" height="76.155" filterUnits="userSpaceOnUse" color-interpolation-filters="sRGB">
<feFlood flood-opacity="0" result="BackgroundImageFix"/>
<feColorMatrix in="SourceAlpha" type="matrix" values="0 0 0 0 0 0 0 0 0 0 0 0 0 0 0 0 0 0 127 0" result="hardAlpha"/>
<feOffset dy="3.24966"/>
<feGaussianBlur stdDeviation="6.49932"/>
<feComposite in2="hardAlpha" operator="out"/>
<feColorMatrix type="matrix" values="0 0 0 0 0.94902 0 0 0 0 0.219608 0 0 0 0 0.278431 0 0 0 0.1 0"/>
<feBlend mode="normal" in2="BackgroundImageFix" result="effect1_dropShadow_13_2168"/>
<feBlend mode="normal" in="SourceGraphic" in2="effect1_dropShadow_13_2168" result="shape"/>
</filter>
</defs>
</svg>
