<svg width="56" height="58" viewBox="0 0 56 58" fill="none" xmlns="http://www.w3.org/2000/svg">
<path d="M51.0783 0.199951H5.59054C4.2925 0.199951 3.04763 0.716923 2.12978 1.63714C1.21193 2.55736 0.696289 3.80544 0.696289 5.10682V19.3108C0.697503 20.2537 0.969683 21.1763 1.48026 21.9682C1.99083 22.7601 2.71818 23.3878 3.57526 23.776L21.5976 31.9878C18.9291 33.485 16.8312 35.8272 15.6327 38.6477C14.4341 41.4682 14.2024 44.6076 14.974 47.5742C15.7457 50.5408 17.4769 53.167 19.8967 55.0415C22.3164 56.916 25.288 57.9329 28.3459 57.9329C31.4039 57.9329 34.3754 56.916 36.7952 55.0415C39.2149 53.167 40.9462 50.5408 41.7178 47.5742C42.4894 44.6076 42.2578 41.4682 41.0592 38.6477C39.8606 35.8272 37.7628 33.485 35.0942 31.9878L53.0936 23.776C53.9507 23.3878 54.678 22.7601 55.1886 21.9682C55.6992 21.1763 55.9713 20.2537 55.9725 19.3108V5.10682C55.9725 3.80544 55.4569 2.55736 54.5391 1.63714C53.6212 0.716923 52.3763 0.199951 51.0783 0.199951ZM37.5471 4.81818V25.7936L28.3344 29.9904L19.1217 25.7936V4.81818H37.5471ZM5.30264 19.3108V5.10682C5.30264 5.03027 5.33298 4.95686 5.38697 4.90272C5.44096 4.84859 5.51419 4.81818 5.59054 4.81818H14.5154V23.6923L5.4725 19.5734C5.42199 19.5507 5.3791 19.5138 5.34897 19.4672C5.31885 19.4206 5.30276 19.3663 5.30264 19.3108ZM28.3344 53.3096C26.5123 53.3096 24.7311 52.7679 23.2161 51.753C21.7011 50.7381 20.5203 49.2956 19.823 47.6078C19.1257 45.9201 18.9433 44.0629 19.2987 42.2712C19.6542 40.4795 20.5316 38.8337 21.82 37.542C23.1085 36.2503 24.75 35.3706 26.5371 35.0142C28.3242 34.6578 30.1766 34.8407 31.86 35.5398C33.5434 36.2389 34.9822 37.4227 35.9945 38.9417C37.0068 40.4606 37.5471 42.2464 37.5471 44.0732C37.5471 46.5228 36.5765 48.8722 34.8488 50.6043C33.1211 52.3365 30.7778 53.3096 28.3344 53.3096ZM51.3662 19.3108C51.3661 19.3663 51.35 19.4206 51.3199 19.4672C51.2897 19.5138 51.2468 19.5507 51.1963 19.5734L42.1535 23.6923V4.81818H51.0783C51.1546 4.81818 51.2279 4.84859 51.2819 4.90272C51.3359 4.95686 51.3662 5.03027 51.3662 5.10682V19.3108Z" fill="white"/>
</svg>
