<svg width="76" height="62" viewBox="0 0 76 62" fill="none" xmlns="http://www.w3.org/2000/svg">
<path d="M74.508 32.6934L67.4836 39.778C67.2661 39.9976 67.0079 40.1718 66.7236 40.2906C66.4394 40.4095 66.1347 40.4706 65.827 40.4706C65.5192 40.4706 65.2146 40.4095 64.9303 40.2906C64.6461 40.1718 64.3878 39.9976 64.1704 39.778L57.1459 32.6934C56.7066 32.2503 56.4597 31.6493 56.4597 31.0226C56.4597 30.3959 56.7066 29.7949 57.1459 29.3518C57.5853 28.9087 58.1812 28.6597 58.8025 28.6597C59.4239 28.6597 60.0198 28.9087 60.4591 29.3518L63.4855 32.4071V31.0226C63.4882 25.522 61.7596 20.1626 58.5488 15.7164C55.338 11.2701 50.8107 7.96653 45.6191 6.28156C40.4274 4.59658 34.8395 4.61719 29.6602 6.3404C24.481 8.06361 19.9777 11.4005 16.7993 15.8703C16.4367 16.3792 15.8886 16.722 15.2755 16.8233C14.6624 16.9246 14.0345 16.7761 13.53 16.4105C13.0254 16.0449 12.6855 15.4921 12.5851 14.8737C12.4846 14.2554 12.6318 13.6221 12.9943 13.1132C16.7509 7.83075 22.0731 3.88733 28.1941 1.851C34.3152 -0.185322 40.9192 -0.209434 47.0547 1.78214C53.1902 3.77372 58.5405 7.67817 62.3349 12.933C66.1293 18.1879 68.1719 24.5219 68.1684 31.0226V32.4071L71.1948 29.3518C71.6342 28.9087 72.2301 28.6597 72.8514 28.6597C73.4727 28.6597 74.0686 28.9087 74.508 29.3518C74.9474 29.7949 75.1942 30.3959 75.1942 31.0226C75.1942 31.6493 74.9474 32.2503 74.508 32.6934ZM62.4552 48.929C58.6976 54.2075 53.3762 58.1473 47.2571 60.1812C41.138 62.2152 34.5368 62.2385 28.4037 60.2478C22.2707 58.257 16.9221 54.3549 13.1279 49.1031C9.33373 43.8512 7.28965 37.5207 7.28991 31.0226V29.6381L4.26354 32.6934C3.82419 33.1365 3.22829 33.3855 2.60694 33.3855C1.9856 33.3855 1.3897 33.1365 0.950346 32.6934C0.510988 32.2503 0.26416 31.6493 0.26416 31.0226C0.26416 30.3959 0.510988 29.7949 0.950346 29.3518L7.97479 22.2671C8.19225 22.0476 8.45049 21.8734 8.73474 21.7545C9.01899 21.6357 9.32368 21.5745 9.63139 21.5745C9.9391 21.5745 10.2438 21.6357 10.528 21.7545C10.8123 21.8734 11.0705 22.0476 11.288 22.2671L18.3124 29.3518C18.7518 29.7949 18.9986 30.3959 18.9986 31.0226C18.9986 31.6493 18.7518 32.2503 18.3124 32.6934C17.8731 33.1365 17.2772 33.3855 16.6558 33.3855C16.0345 33.3855 15.4386 33.1365 14.9992 32.6934L11.9729 29.6381V31.0226C11.9673 37.3816 14.2846 43.5199 18.4822 48.2649C21.0936 44.4482 24.7656 41.4955 29.0364 39.778C26.7423 37.9556 25.0683 35.4575 24.2471 32.6311C23.426 29.8046 23.4985 26.7904 24.4547 24.0074C25.4108 21.2245 27.2031 18.8113 29.5822 17.1033C31.9613 15.3953 34.8089 14.4775 37.7292 14.4775C40.6494 14.4775 43.4971 15.3953 45.8762 17.1033C48.2553 18.8113 50.0475 21.2245 51.0037 24.0074C51.9598 26.7904 52.0324 29.8046 51.2112 32.6311C50.3901 35.4575 48.716 37.9556 46.4219 39.778C50.6967 41.4958 54.3712 44.452 56.982 48.2737C57.574 47.6031 58.1318 46.9026 58.6532 46.1749C59.0158 45.666 59.5639 45.3232 60.177 45.2219C60.7901 45.1206 61.418 45.2691 61.9225 45.6347C62.4271 46.0003 62.767 46.5531 62.8674 47.1715C62.9679 47.7898 62.8207 48.4231 62.4582 48.932L62.4552 48.929ZM37.7292 38.1072C39.5816 38.1072 41.3924 37.5532 42.9326 36.5153C44.4728 35.4773 45.6733 34.002 46.3822 32.2759C47.091 30.5499 47.2765 28.6506 46.9151 26.8182C46.5538 24.9858 45.6617 23.3026 44.3519 21.9816C43.042 20.6605 41.3732 19.7608 39.5564 19.3963C37.7396 19.0319 35.8564 19.2189 34.145 19.9339C32.4336 20.6488 30.9708 21.8596 29.9417 23.413C28.9125 24.9664 28.3632 26.7928 28.3632 28.661C28.3632 31.1663 29.35 33.569 31.1065 35.3405C32.8629 37.112 35.2452 38.1072 37.7292 38.1072ZM37.7292 56.9996C43.4437 56.9921 48.9942 55.0725 53.5108 51.5415C51.8169 48.8697 49.4834 46.6709 46.7254 45.1478C43.9674 43.6247 40.8736 42.8264 37.7292 42.8264C34.5848 42.8264 31.491 43.6247 28.733 45.1478C25.9749 46.6709 23.6415 48.8697 21.9476 51.5415C26.4574 55.0851 32.0123 57.0063 37.7292 56.9996Z" fill="white"/>
</svg>
