<svg width="64" height="50" viewBox="0 0 64 50" fill="none" xmlns="http://www.w3.org/2000/svg">
<path d="M61.3617 29.5712C60.6656 29.0328 59.8675 28.6422 59.0162 28.4233C58.1649 28.2043 57.278 28.1615 56.4097 28.2974C61.4069 23.2345 63.9349 18.2009 63.9349 13.2661C63.9349 6.19773 58.2697 0.448493 51.3059 0.448493C49.4582 0.436848 47.6303 0.831218 45.9506 1.60391C44.2709 2.37661 42.78 3.50891 41.5828 4.92131C40.3855 3.50891 38.8947 2.37661 37.215 1.60391C35.5353 0.831218 33.7074 0.436848 31.8596 0.448493C24.8959 0.448493 19.2307 6.19773 19.2307 13.2661C19.2307 16.2035 20.0928 19.0581 21.9076 22.0782C20.4213 22.4561 19.0649 23.2313 17.9827 24.3213L11.9636 30.3563H4.32932C3.20015 30.3563 2.11722 30.8064 1.31878 31.6077C0.520338 32.4089 0.0717773 33.4957 0.0717773 34.6288L0.0717773 45.3101C0.0717773 46.4433 0.520338 47.53 1.31878 48.3313C2.11722 49.1325 3.20015 49.5827 4.32932 49.5827H32.0033C32.1774 49.5828 32.3508 49.5612 32.5195 49.5186L49.5497 45.2461C49.6582 45.2201 49.7642 45.1844 49.8664 45.1392L60.2095 40.7225L60.3266 40.6691C61.3206 40.1706 62.1719 39.4264 62.8001 38.5066C63.4283 37.5867 63.8129 36.5215 63.9175 35.4113C64.0221 34.3011 63.8433 33.1824 63.3981 32.1607C62.9528 31.139 62.2557 30.2478 61.3723 29.5712H61.3617ZM31.8596 4.72103C33.5084 4.69682 35.1269 5.16664 36.5081 6.07044C37.8894 6.97423 38.9707 8.27091 39.6137 9.79467C39.774 10.1865 40.0469 10.5216 40.3975 10.7575C40.7481 10.9933 41.1607 11.1192 41.5828 11.1192C42.0049 11.1192 42.4174 10.9933 42.7681 10.7575C43.1187 10.5216 43.3915 10.1865 43.5519 9.79467C44.1949 8.27091 45.2761 6.97423 46.6574 6.07044C48.0387 5.16664 49.6572 4.69682 51.3059 4.72103C55.8429 4.72103 59.6773 8.63307 59.6773 13.2661C59.6773 18.4759 55.4757 24.3694 47.5274 30.3296L44.5764 31.0105C44.8354 29.9124 44.8434 28.7698 44.5998 27.6682C44.3561 26.5666 43.8672 25.5346 43.1696 24.6496C42.472 23.7646 41.5839 23.0495 40.5717 22.5579C39.5596 22.0664 38.4497 21.8111 37.3252 21.8112H26.8623C24.5659 18.7029 23.4882 15.9685 23.4882 13.2661C23.4882 8.63307 27.3227 4.72103 31.8596 4.72103ZM4.32932 34.6288H10.7156V45.3101H4.32932V34.6288ZM58.4613 36.8211L48.3496 41.1418L31.7372 45.3101H14.9732V33.3764L20.9949 27.3361C21.3888 26.9376 21.8577 26.6217 22.3744 26.4067C22.8911 26.1917 23.4452 26.0819 24.0045 26.0837H37.3252C38.1721 26.0837 38.9843 26.4213 39.5831 27.0223C40.182 27.6232 40.5184 28.4383 40.5184 29.2881C40.5184 30.138 40.182 30.953 39.5831 31.554C38.9843 32.1549 38.1721 32.4925 37.3252 32.4925H29.8745C29.31 32.4925 28.7685 32.7176 28.3693 33.1182C27.9701 33.5189 27.7458 34.0622 27.7458 34.6288C27.7458 35.1954 27.9701 35.7387 28.3693 36.1394C28.7685 36.54 29.31 36.7651 29.8745 36.7651H38.3896C38.5499 36.7646 38.7096 36.7467 38.8659 36.7117L56.6944 32.5967L56.7769 32.5753C57.3211 32.4237 57.902 32.4794 58.4078 32.7317C58.9135 32.9841 59.3085 33.4152 59.5165 33.9422C59.7246 34.4691 59.7311 35.0547 59.5348 35.5862C59.3385 36.1177 58.9533 36.5575 58.4533 36.8211H58.4613Z" fill="white"/>
</svg>
