<svg width="35" height="35" viewBox="0 0 35 35" fill="none" xmlns="http://www.w3.org/2000/svg">
<g clip-path="url(#clip0_1_811)">
<path d="M17.4998 8.75C16.3461 8.75 15.2183 9.09212 14.259 9.73309C13.2997 10.3741 12.5521 11.2851 12.1105 12.351C11.669 13.4169 11.5535 14.5898 11.7786 15.7214C12.0037 16.8529 12.5592 17.8923 13.3751 18.7081C14.1909 19.5239 15.2303 20.0795 16.3618 20.3046C17.4934 20.5297 18.6663 20.4141 19.7322 19.9726C20.7981 19.5311 21.7091 18.7834 22.3501 17.8242C22.9911 16.8649 23.3332 15.7371 23.3332 14.5833C23.3332 13.0362 22.7186 11.5525 21.6246 10.4585C20.5307 9.36458 19.0469 8.75 17.4998 8.75ZM17.4998 17.5C16.923 17.5 16.3591 17.3289 15.8794 17.0085C15.3998 16.688 15.0259 16.2324 14.8052 15.6995C14.5844 15.1665 14.5267 14.5801 14.6392 14.0143C14.7518 13.4485 15.0295 12.9288 15.4374 12.5209C15.8453 12.113 16.365 11.8352 16.9308 11.7227C17.4966 11.6102 18.083 11.6679 18.616 11.8887C19.149 12.1094 19.6045 12.4833 19.925 12.9629C20.2454 13.4426 20.4165 14.0065 20.4165 14.5833C20.4165 15.3569 20.1092 16.0987 19.5622 16.6457C19.0153 17.1927 18.2734 17.5 17.4998 17.5Z" fill="#414141"/>
<path d="M17.4997 35C16.2717 35.0063 15.0601 34.7183 13.9663 34.1601C12.8725 33.6019 11.9283 32.7897 11.2128 31.7917C5.65514 24.1252 2.83618 18.3619 2.83618 14.6606C2.83618 10.7716 4.38109 7.04187 7.13103 4.29192C9.88098 1.54198 13.6107 -0.00292969 17.4997 -0.00292969C21.3887 -0.00292969 25.1185 1.54198 27.8684 4.29192C30.6184 7.04187 32.1633 10.7716 32.1633 14.6606C32.1633 18.3619 29.3443 24.1252 23.7866 31.7917C23.0711 32.7897 22.127 33.6019 21.0332 34.1601C19.9394 34.7183 18.7277 35.0063 17.4997 35ZM17.4997 3.18061C14.4553 3.18409 11.5366 4.39501 9.38391 6.54772C7.2312 8.70043 6.02028 11.6191 6.01681 14.6635C6.01681 17.5948 8.77743 23.0154 13.7883 29.9264C14.2137 30.5124 14.7717 30.9893 15.4168 31.3181C16.0619 31.6469 16.7757 31.8183 17.4997 31.8183C18.2238 31.8183 18.9376 31.6469 19.5826 31.3181C20.2277 30.9893 20.7858 30.5124 21.2112 29.9264C26.222 23.0154 28.9826 17.5948 28.9826 14.6635C28.9792 11.6191 27.7682 8.70043 25.6155 6.54772C23.4628 4.39501 20.5441 3.18409 17.4997 3.18061Z" fill="#414141"/>
</g>
<defs>
<clipPath id="clip0_1_811">
<rect width="35" height="35" fill="white" transform="translate(-0.000244141)"/>
</clipPath>
</defs>
</svg>
