<svg version="1.2" xmlns="http://www.w3.org/2000/svg" viewBox="0 0 161 125" width="161" height="125"><style>.a{fill:#fff}</style><path class="a" d="m62 43c-20.6 0-41 0-61.4 0q0-0.3-0.1-0.6c1-0.4 1.9-1 2.9-1.4q34.8-14 69.6-28.1c3-1.2 5.9-2 8.7 0.5 2.9 2.5 2.4 5.7 1.5 9-1.9 6.5-3.6 13-5.5 20 20.7 0 40.9 0 61.1 0q0.1 0.4 0.1 0.8c-4.1 1.7-8.3 3.5-12.5 5.1-19.9 8.1-39.8 16.1-59.7 24.1-1.6 0.7-3.5 1.3-5.2 1.1-4.4-0.6-6.5-4.6-5.1-9.7 1.5-5.7 3.1-11.4 4.7-17.2 0.3-1.1 0.6-2.2 0.9-3.6z"/><path class="a" d="m117.5 12.1c-0.1 6.5-5.2 11.8-11.6 11.8-6.4 0-11.9-5.6-11.8-12.1 0.1-6.6 5.5-11.9 12-11.8 6.4 0.1 11.4 5.4 11.4 12.1z"/><path class="a" d="m9 94.3h-5.8v5.9h-2.7v-13.8h2.7v5.6h5.8v-5.6h2.7v13.8h-2.7z"/><path class="a" d="m24.5 100.1h-2.7v-1.3c-0.7 0.9-1.9 1.5-3.2 1.5-2.5 0-4.3-1.7-4.3-4.7v-6.4h2.7v6c0 1.8 0.9 2.7 2.4 2.7 1.4 0 2.4-0.9 2.4-2.7v-6h2.7z"/><path fill-rule="evenodd" class="a" d="m51.6 89c1.7 0 2.9 0.9 3.6 1.8v-1.6h2.7v10.9h-2.7v-1.6c-0.7 1-1.9 1.8-3.6 1.8-2.7 0-4.9-2.2-4.9-5.7 0-3.4 2.2-5.6 4.9-5.6zm0.7 2.5c-1.4 0-2.8 1.1-2.8 3.1 0 2.1 1.4 3.3 2.8 3.3 1.5 0 2.9-1.2 2.9-3.2 0-2.1-1.4-3.2-2.9-3.2z"/><path class="a" d="m68 94.1c0-1.8-0.9-2.7-2.3-2.7-1.5 0-2.5 0.9-2.5 2.7v6.1h-2.7v-11h2.7v1.4c0.7-1 1.9-1.6 3.3-1.6 2.5 0 4.3 1.7 4.3 4.7v6.5h-2.8z"/><path fill-rule="evenodd" class="a" d="m82.9 94.9h-2.3v5.3h-2.7v-13.8h5c3.2 0 4.9 1.8 4.9 4.2 0 2.1-1.4 4.3-4.9 4.3zm-0.1-2.3c1.5 0 2.2-0.7 2.2-2 0-1.2-0.7-2-2.2-2h-2.2v4h2.2z"/><path fill-rule="evenodd" class="a" d="m94.4 100.3c-3.1 0-5.4-2.2-5.4-5.6 0-3.5 2.4-5.7 5.5-5.7 3.1 0 5.5 2.2 5.5 5.7 0 3.4-2.4 5.6-5.6 5.6zm0-2.4c1.5 0 2.8-1.1 2.8-3.2 0-2.2-1.3-3.3-2.7-3.3-1.4 0-2.7 1.1-2.7 3.3 0 2.1 1.2 3.2 2.6 3.2z"/><path class="a" d="m100.8 89.2h2.8l1.9 8.3 2-8.3h2.9l2 8.3 1.9-8.3h2.6l-3.2 10.9h-2.9l-1.9-7.6-2 7.6h-2.9z"/><path fill-rule="evenodd" class="a" d="m123 100.3c-3.1 0-5.3-2.2-5.3-5.6 0-3.5 2.2-5.7 5.3-5.7 3.1 0 5.3 2.2 5.3 5.4q0 0.6-0.1 1.1h-7.8c0.1 1.6 1.2 2.5 2.6 2.5 1.1 0 1.8-0.6 2.1-1.3h2.9c-0.5 2-2.3 3.6-5 3.6zm-2.6-6.6h5.1c0-1.5-1.2-2.4-2.5-2.4-1.3 0-2.4 0.8-2.6 2.4z"/><path class="a" d="m133 100.1h-2.7v-10.9h2.7v1.7c0.7-1.1 1.8-1.9 3.3-1.9v3h-0.7c-1.6 0-2.6 0.6-2.6 2.7z"/><path fill-rule="evenodd" class="a" d="m142.8 100.3c-3.1 0-5.4-2.2-5.4-5.6 0-3.5 2.2-5.7 5.4-5.7 3.1 0 5.3 2.2 5.3 5.4q0 0.6-0.1 1.1h-7.9c0.2 1.6 1.3 2.5 2.6 2.5 1.2 0 1.8-0.6 2.2-1.3h2.9c-0.6 2-2.4 3.6-5 3.6zm-2.6-6.6h5.1c-0.1-1.5-1.2-2.4-2.6-2.4-1.3 0-2.3 0.8-2.5 2.4z"/><path fill-rule="evenodd" class="a" d="m154.3 89c1.4 0 2.7 0.7 3.5 1.7v-5.2h2.7v14.7h-2.7v-1.7c-0.7 1-1.9 1.8-3.6 1.8-2.7 0-4.9-2.2-4.9-5.7 0-3.4 2.2-5.6 4.9-5.6zm0.7 2.5c-1.4 0-2.8 1.1-2.8 3.1 0 2.1 1.4 3.3 2.8 3.3 1.5 0 2.9-1.2 2.9-3.2 0-2.1-1.4-3.2-2.9-3.2z"/><path class="a" d="m56.7 118.9h-5.8v5.9h-2.7v-13.8h2.7v5.7h5.8v-5.7h2.7v13.8h-2.7z"/><path fill-rule="evenodd" class="a" d="m66.8 125c-3.2 0-5.4-2.2-5.4-5.7 0-3.4 2.2-5.6 5.4-5.6 3.1 0 5.2 2.1 5.2 5.4q0 0.5 0 1.1h-7.9c0.2 1.6 1.2 2.5 2.6 2.5 1.2 0 1.8-0.6 2.1-1.3h3c-0.6 2-2.4 3.6-5 3.6zm-2.7-6.7h5.1c0-1.4-1.1-2.3-2.5-2.3-1.3 0-2.3 0.8-2.6 2.3z"/><path fill-rule="evenodd" class="a" d="m78.2 113.7c1.7 0 2.9 0.8 3.5 1.7v-1.5h2.8v10.9h-2.8v-1.6c-0.6 1-1.8 1.8-3.5 1.8-2.7 0-4.9-2.3-4.9-5.7 0-3.4 2.2-5.6 4.9-5.6zm0.7 2.4c-1.4 0-2.8 1.1-2.8 3.2 0 2.1 1.4 3.3 2.8 3.3 1.5 0 2.8-1.2 2.8-3.3 0-2-1.3-3.2-2.8-3.2z"/><path class="a" d="m87.1 110.2h2.7v14.6h-2.7z"/><path class="a" d="m92.9 116.1h-1.2v-2.2h1.2v-2.7h2.8v2.7h2.4v2.2h-2.4v5.3c0 0.8 0.2 1.1 1.1 1.1h1.3v2.3h-1.7c-2.1 0-3.5-0.9-3.5-3.4z"/><path class="a" d="m100 110.2h2.7v5c0.7-0.9 1.9-1.5 3.3-1.5 2.5 0 4.2 1.7 4.2 4.7v6.4h-2.7v-6c0-1.8-0.9-2.7-2.4-2.7-1.4 0-2.4 0.9-2.4 2.7v6h-2.7z"/></svg>