<svg width="49" height="58" viewBox="0 0 49 58" fill="none" xmlns="http://www.w3.org/2000/svg">
<path d="M41.3715 5.82857C42.1217 5.82857 42.8412 6.12498 43.3716 6.65261C43.9021 7.18023 44.2001 7.89584 44.2001 8.64201V50.8437C44.2001 51.5899 43.9021 52.3055 43.3716 52.8331C42.8412 53.3607 42.1217 53.6571 41.3715 53.6571H7.42867C6.67849 53.6571 5.95903 53.3607 5.42857 52.8331C4.89811 52.3055 4.6001 51.5899 4.6001 50.8437V8.64201C4.6001 7.89584 4.89811 7.18023 5.42857 6.65261C5.95903 6.12498 6.67849 5.82857 7.42867 5.82857" stroke="white" stroke-width="8.4" stroke-linecap="round" stroke-linejoin="round"/>
<path d="M24.4 34.1143V32.6883C24.4 32.3101 24.549 31.9474 24.8143 31.68C25.0795 31.4126 25.4392 31.2623 25.8143 31.2623C26.9396 31.2623 28.0188 30.8116 28.8145 30.0094C29.6102 29.2071 30.0572 28.119 30.0572 26.9844C30.0572 25.8498 29.6102 24.7617 28.8145 23.9595C28.0188 23.1572 26.9396 22.7065 25.8143 22.7065H21.5714M30.0572 11.2987H18.7429C17.9927 11.2987 17.2732 10.9982 16.7428 10.4634C16.2123 9.92854 15.9143 9.20314 15.9143 8.44675V5.59481C15.9143 4.83842 16.2123 4.11302 16.7428 3.57817C17.2732 3.04333 17.9927 2.74286 18.7429 2.74286H30.0572C30.8073 2.74286 31.5268 3.04333 32.0573 3.57817C32.5877 4.11302 32.8857 4.83842 32.8857 5.59481V8.44675C32.8857 9.20314 32.5877 9.92854 32.0573 10.4634C31.5268 10.9982 30.8073 11.2987 30.0572 11.2987Z" stroke="white" stroke-width="4.8" stroke-linecap="round" stroke-linejoin="round"/>
<path d="M24.1431 42.3429H24.6574" stroke="white" stroke-width="4.8" stroke-linecap="round" stroke-linejoin="round"/>
</svg>
