<svg width="46" height="53" viewBox="0 0 46 53" fill="none" xmlns="http://www.w3.org/2000/svg">
<path d="M2.59121 17.9577C7.38899 -3.133 38.6354 -3.10865 43.4089 17.9821C46.2096 30.354 38.5137 40.8263 31.7675 47.3045C26.8724 52.0293 19.1277 52.0293 14.2082 47.3045C7.48641 40.8263 -0.209521 30.3297 2.59121 17.9577Z" stroke="white" stroke-width="3.9408"/>
<path d="M2.59121 17.9577C7.38899 -3.133 38.6354 -3.10865 43.4089 17.9821C46.2096 30.354 38.5137 40.8263 31.7675 47.3045C26.8724 52.0293 19.1277 52.0293 14.2082 47.3045C7.48641 40.8263 -0.209521 30.3297 2.59121 17.9577Z" stroke="white" stroke-width="3.9408"/>
<path d="M28.7845 22.9403C28.7845 26.1349 26.1947 28.7248 23 28.7248C19.8053 28.7248 17.2155 26.1349 17.2155 22.9403C17.2155 19.7456 19.8053 17.1558 23 17.1558C26.1947 17.1558 28.7845 19.7456 28.7845 22.9403Z" stroke="white" stroke-width="3.9408"/>
</svg>
