<svg width="49" height="49" viewBox="0 0 49 49" fill="none" xmlns="http://www.w3.org/2000/svg">
<path d="M48.5727 9.72413C48.4023 9.52029 48.1893 9.35634 47.9487 9.24385C47.708 9.13136 47.4456 9.07308 47.1799 9.07313H10.5883L9.47909 2.98052C9.32716 2.14429 8.88657 1.38789 8.23412 0.843215C7.58167 0.298537 6.75875 0.000122837 5.90883 0H1.81461C1.33335 0 0.871794 0.191183 0.531488 0.531491C0.191182 0.8718 0 1.33336 0 1.81463C0 2.29589 0.191182 2.75745 0.531488 3.09776C0.871794 3.43807 1.33335 3.62925 1.81461 3.62925H5.89749L11.6952 35.451C11.866 36.3947 12.283 37.2766 12.9042 38.0073C12.0469 38.8081 11.4281 39.8306 11.1165 40.9616C10.8048 42.0925 10.8125 43.2877 11.1386 44.4145C11.4648 45.5414 12.0966 46.5559 12.9641 47.3456C13.8316 48.1352 14.9009 48.6692 16.0533 48.8883C17.2058 49.1073 18.3964 49.0029 19.4931 48.5867C20.5899 48.1704 21.5499 47.4585 22.2668 46.5299C22.9836 45.6013 23.4293 44.4923 23.5543 43.3259C23.6794 42.1595 23.479 40.9812 22.9753 39.9218H33.2777C32.8718 40.7717 32.6617 41.7018 32.663 42.6437C32.663 43.8999 33.0355 45.1278 33.7334 46.1722C34.4313 47.2167 35.4232 48.0307 36.5837 48.5114C37.7442 48.9921 39.0212 49.1179 40.2532 48.8729C41.4852 48.6278 42.6169 48.0229 43.5051 47.1347C44.3934 46.2464 44.9982 45.1148 45.2433 43.8828C45.4884 42.6507 45.3626 41.3737 44.8819 40.2132C44.4012 39.0527 43.5871 38.0608 42.5427 37.3629C41.4983 36.665 40.2703 36.2925 39.0142 36.2925H17.0506C16.6256 36.2925 16.2141 36.1432 15.8879 35.8709C15.5617 35.5986 15.3414 35.2204 15.2654 34.8022L14.5464 30.8486H40.8583C42.1332 30.8485 43.3675 30.4008 44.3462 29.5838C45.3249 28.7668 45.9858 27.6322 46.2137 26.3779L48.9719 11.2121C49.0186 10.95 49.007 10.6808 48.938 10.4237C48.869 10.1665 48.7443 9.92767 48.5727 9.72413ZM19.9607 42.6437C19.9607 43.1821 19.8011 43.7083 19.502 44.1559C19.2029 44.6036 18.7778 44.9524 18.2805 45.1584C17.7831 45.3645 17.2358 45.4184 16.7078 45.3133C16.1798 45.2083 15.6948 44.9491 15.3141 44.5684C14.9335 44.1877 14.6742 43.7027 14.5692 43.1747C14.4642 42.6467 14.5181 42.0994 14.7241 41.6021C14.9301 41.1047 15.279 40.6796 15.7266 40.3805C16.1742 40.0814 16.7005 39.9218 17.2388 39.9218C17.9607 39.9218 18.6531 40.2085 19.1635 40.719C19.674 41.2295 19.9607 41.9218 19.9607 42.6437ZM41.7361 42.6437C41.7361 43.1821 41.5765 43.7083 41.2774 44.1559C40.9783 44.6036 40.5532 44.9524 40.0558 45.1584C39.5585 45.3645 39.0112 45.4184 38.4832 45.3133C37.9552 45.2083 37.4702 44.9491 37.0895 44.5684C36.7088 44.1877 36.4496 43.7027 36.3446 43.1747C36.2395 42.6467 36.2934 42.0994 36.4995 41.6021C36.7055 41.1047 37.0544 40.6796 37.502 40.3805C37.9496 40.0814 38.4758 39.9218 39.0142 39.9218C39.7361 39.9218 40.4284 40.2085 40.9389 40.719C41.4493 41.2295 41.7361 41.9218 41.7361 42.6437ZM42.6434 25.7291C42.5672 26.1484 42.346 26.5275 42.0183 26.8C41.6907 27.0724 41.2776 27.2209 40.8515 27.2194H13.8863L11.2483 12.7024H45.0047L42.6434 25.7291Z" fill="white"/>
</svg>
