<svg width="95" height="95" viewBox="0 0 95 95" fill="none" xmlns="http://www.w3.org/2000/svg">
<g filter="url(#filter0_d_30_2232)">
<ellipse cx="47.5718" cy="43.202" rx="15.5" ry="16" transform="rotate(1.39109 47.5718 43.202)" fill="#FFA439"/>
</g>
<g filter="url(#filter1_d_30_2232)">
<path d="M78.1399 43.6774C77.9161 60.7246 63.9151 74.3627 46.8678 74.1389C29.8206 73.9151 16.1825 59.9141 16.4063 42.8669C16.6301 25.8196 30.6311 12.1815 47.6783 12.4053C64.7256 12.6291 78.3637 26.6301 78.1399 43.6774ZM31.5602 43.0658C31.4463 51.7438 38.3888 58.871 47.0668 58.985C55.7448 59.0989 62.872 52.1564 62.9859 43.4784C63.0999 34.8004 56.1573 27.6732 47.4794 27.5593C38.8014 27.4453 31.6742 34.3879 31.5602 43.0658Z" fill="white"/>
</g>
<defs>
<filter id="filter0_d_30_2232" x="22.0713" y="19.2021" width="51.001" height="51.9996" filterUnits="userSpaceOnUse" color-interpolation-filters="sRGB">
<feFlood flood-opacity="0" result="BackgroundImageFix"/>
<feColorMatrix in="SourceAlpha" type="matrix" values="0 0 0 0 0 0 0 0 0 0 0 0 0 0 0 0 0 0 127 0" result="hardAlpha"/>
<feOffset dy="2"/>
<feGaussianBlur stdDeviation="5"/>
<feComposite in2="hardAlpha" operator="out"/>
<feColorMatrix type="matrix" values="0 0 0 0 0.486275 0 0 0 0 0.552941 0 0 0 0 0.709804 0 0 0 0.12 0"/>
<feBlend mode="normal" in2="BackgroundImageFix" result="effect1_dropShadow_30_2232"/>
<feBlend mode="normal" in="SourceGraphic" in2="effect1_dropShadow_30_2232" result="shape"/>
</filter>
<filter id="filter1_d_30_2232" x="0.40332" y="0.402588" width="93.7393" height="93.7391" filterUnits="userSpaceOnUse" color-interpolation-filters="sRGB">
<feFlood flood-opacity="0" result="BackgroundImageFix"/>
<feColorMatrix in="SourceAlpha" type="matrix" values="0 0 0 0 0 0 0 0 0 0 0 0 0 0 0 0 0 0 127 0" result="hardAlpha"/>
<feOffset dy="4"/>
<feGaussianBlur stdDeviation="8"/>
<feComposite in2="hardAlpha" operator="out"/>
<feColorMatrix type="matrix" values="0 0 0 0 0.94902 0 0 0 0 0.219608 0 0 0 0 0.278431 0 0 0 0.1 0"/>
<feBlend mode="normal" in2="BackgroundImageFix" result="effect1_dropShadow_30_2232"/>
<feBlend mode="normal" in="SourceGraphic" in2="effect1_dropShadow_30_2232" result="shape"/>
</filter>
</defs>
</svg>
