<svg width="94" height="95" viewBox="0 0 94 95" fill="none" xmlns="http://www.w3.org/2000/svg">
<g filter="url(#filter0_d_36_2239)">
<ellipse cx="46.8788" cy="43.2711" rx="16" ry="15.5" transform="rotate(1.39109 46.8788 43.2711)" fill="#87037B"/>
</g>
<g filter="url(#filter1_d_36_2239)">
<path d="M77.7786 43.6057C77.5548 60.653 63.5538 74.2911 46.5065 74.0673C29.4592 73.8435 15.8211 59.8425 16.045 42.7952C16.2688 25.7479 30.2697 12.1098 47.317 12.3337C64.3643 12.5575 78.0024 26.5584 77.7786 43.6057ZM31.1989 42.9942C31.085 51.6721 38.0275 58.7994 46.7055 58.9133C55.3834 59.0272 62.5107 52.0847 62.6246 43.4067C62.7385 34.7288 55.796 27.6015 47.118 27.4876C38.4401 27.3737 31.3128 34.3162 31.1989 42.9942Z" fill="white"/>
</g>
<defs>
<filter id="filter0_d_36_2239" x="20.8789" y="19.7707" width="52" height="51.0008" filterUnits="userSpaceOnUse" color-interpolation-filters="sRGB">
<feFlood flood-opacity="0" result="BackgroundImageFix"/>
<feColorMatrix in="SourceAlpha" type="matrix" values="0 0 0 0 0 0 0 0 0 0 0 0 0 0 0 0 0 0 127 0" result="hardAlpha"/>
<feOffset dy="2"/>
<feGaussianBlur stdDeviation="5"/>
<feComposite in2="hardAlpha" operator="out"/>
<feColorMatrix type="matrix" values="0 0 0 0 0.486275 0 0 0 0 0.552941 0 0 0 0 0.709804 0 0 0 0.12 0"/>
<feBlend mode="normal" in2="BackgroundImageFix" result="effect1_dropShadow_36_2239"/>
<feBlend mode="normal" in="SourceGraphic" in2="effect1_dropShadow_36_2239" result="shape"/>
</filter>
<filter id="filter1_d_36_2239" x="0.0419922" y="0.330933" width="93.7393" height="93.7391" filterUnits="userSpaceOnUse" color-interpolation-filters="sRGB">
<feFlood flood-opacity="0" result="BackgroundImageFix"/>
<feColorMatrix in="SourceAlpha" type="matrix" values="0 0 0 0 0 0 0 0 0 0 0 0 0 0 0 0 0 0 127 0" result="hardAlpha"/>
<feOffset dy="4"/>
<feGaussianBlur stdDeviation="8"/>
<feComposite in2="hardAlpha" operator="out"/>
<feColorMatrix type="matrix" values="0 0 0 0 0.94902 0 0 0 0 0.219608 0 0 0 0 0.278431 0 0 0 0.1 0"/>
<feBlend mode="normal" in2="BackgroundImageFix" result="effect1_dropShadow_36_2239"/>
<feBlend mode="normal" in="SourceGraphic" in2="effect1_dropShadow_36_2239" result="shape"/>
</filter>
</defs>
</svg>
