<svg width="81" height="81" viewBox="0 0 81 81" fill="none" xmlns="http://www.w3.org/2000/svg">
<circle cx="40.1062" cy="40.1062" r="40.1062" fill="#DB4A39"/>
<path d="M45.6658 36.8356C45.829 37.7467 45.9455 38.6577 45.9455 39.8395C45.9455 50.1561 39.3957 57.4688 29.5362 57.4688C20.0962 57.4688 12.4509 49.3929 12.4509 39.421C12.4509 29.4491 20.0962 21.3732 29.5362 21.3732C34.1513 21.3732 37.9972 23.1459 40.9807 26.1006L36.3423 30.8033C35.0836 29.523 32.8693 28.0211 29.5362 28.0211C23.709 28.0211 18.954 33.1178 18.954 39.421C18.954 45.7242 23.709 50.8209 29.5362 50.8209C36.2956 50.8209 38.8364 45.6749 39.2325 43.0403H29.5362V36.8355L45.6658 36.8356ZM62.1643 37.4407V32.2019H57.181V37.4407H52.2216V42.7047H57.181V47.9436H62.1643V42.7047H67.1238V37.4407H62.1643Z" fill="white"/>
</svg>
