<svg width="61" height="60" viewBox="0 0 61 60" fill="none" xmlns="http://www.w3.org/2000/svg">
<circle cx="30.5008" cy="29.9159" r="29.9159" fill="#D9D9D9" fill-opacity="0.48"/>
<path d="M17.8613 18.0244C16.2509 18.0244 14.9445 19.2555 14.9445 20.7729C14.9445 21.6376 15.3759 22.4507 16.1112 22.9718L29.334 32.3168C30.0268 32.8035 30.9747 32.8035 31.6675 32.3168L44.8903 22.9718C45.6256 22.4507 46.057 21.6376 46.057 20.7729C46.057 19.2555 44.7506 18.0244 43.1402 18.0244H17.8613ZM14.9445 24.4376V36.3479C14.9445 38.3692 16.6885 40.0126 18.8335 40.0126H42.168C44.313 40.0126 46.057 38.3692 46.057 36.3479V24.4376L32.8342 33.7826C31.4487 34.7618 29.5528 34.7618 28.1673 33.7826L14.9445 24.4376Z" fill="#ACABAB"/>
</svg>
