<svg width="81" height="81" viewBox="0 0 81 81" fill="none" xmlns="http://www.w3.org/2000/svg">
<circle cx="40.1302" cy="40.4209" r="40.1062" fill="#4267B2"/>
<path d="M55.3419 22.2228H25.7205C24.6493 22.2228 23.6219 22.6427 22.8643 23.3901C22.1068 24.1376 21.6813 25.1513 21.6813 26.2083V55.4358C21.6813 56.4928 22.1068 57.5065 22.8643 58.254C23.6219 59.0014 24.6493 59.4213 25.7205 59.4213H37.2703V46.7746H31.9688V40.822H37.2703V36.2852C37.2703 31.1247 40.3839 28.2742 45.1528 28.2742C47.4367 28.2742 49.8249 28.6761 49.8249 28.6761V33.741H47.1935C44.6008 33.741 43.7921 35.3286 43.7921 36.9569V40.822H49.58L48.6544 46.7746H43.7921V59.4213H55.3419C56.4132 59.4213 57.4406 59.0014 58.1981 58.254C58.9556 57.5065 59.3811 56.4928 59.3811 55.4358V26.2083C59.3811 25.1513 58.9556 24.1376 58.1981 23.3901C57.4406 22.6427 56.4132 22.2228 55.3419 22.2228Z" fill="white"/>
</svg>
