<svg width="60" height="61" viewBox="0 0 60 61" fill="none" xmlns="http://www.w3.org/2000/svg">
<circle cx="29.9994" cy="30.5143" r="29.9159" fill="#0072B1"/>
<path d="M42.8206 17.426H17.1717C15.9964 17.426 15.0415 18.2733 15.0415 19.3133V41.7152C15.0415 42.7552 15.9964 43.6025 17.1717 43.6025H42.8206C43.9959 43.6025 44.9574 42.7552 44.9574 41.7152V19.3133C44.9574 18.2733 43.9959 17.426 42.8206 17.426ZM24.0831 39.863H19.6491V27.3707H24.0897V39.863H24.0831ZM21.8661 25.6646C20.4437 25.6646 19.2952 24.6538 19.2952 23.4151C19.2952 22.1763 20.4437 21.1655 21.8661 21.1655C23.2817 21.1655 24.437 22.1763 24.437 23.4151C24.437 24.6596 23.2884 25.6646 21.8661 25.6646ZM40.7038 39.863H36.2698V33.7863C36.2698 32.3373 36.2364 30.4733 33.966 30.4733C31.6555 30.4733 31.3016 32.0509 31.3016 33.6811V39.863H26.8677V27.3707H31.1213V29.0769H31.1814C31.7757 28.0953 33.2248 27.0611 35.3817 27.0611C39.8691 27.0611 40.7038 29.6495 40.7038 33.015V39.863Z" fill="white"/>
</svg>
