<svg width="61" height="61" viewBox="0 0 61 61" fill="none" xmlns="http://www.w3.org/2000/svg">
<circle cx="30.8417" cy="30.5143" r="29.9159" fill="#DB4A39"/>
<path d="M36.7223 27.9876C36.8441 28.6671 36.931 29.3467 36.931 30.2282C36.931 37.9236 32.0454 43.3782 24.691 43.3782C17.6495 43.3782 11.9468 37.3542 11.9468 29.916C11.9468 22.4778 17.6495 16.4539 24.691 16.4539C28.1335 16.4539 31.0022 17.7762 33.2277 19.9801L29.7677 23.488C28.8288 22.5329 27.1772 21.4126 24.691 21.4126C20.3444 21.4126 16.7975 25.2144 16.7975 29.916C16.7975 34.6177 20.3444 38.4194 24.691 38.4194C29.733 38.4194 31.6281 34.581 31.9236 32.6158H24.691V27.9875L36.7223 27.9876ZM49.0289 28.4389V24.5312H45.3117V28.4389H41.6124V32.3654H45.3117V36.2732H49.0289V32.3654H52.7282V28.4389H49.0289Z" fill="white"/>
</svg>
