<svg width="81" height="81" viewBox="0 0 81 81" fill="none" xmlns="http://www.w3.org/2000/svg">
<circle cx="40.1062" cy="40.1062" r="40.1062" fill="#C8232C"/>
<path d="M41.0582 20.73C30.3423 20.73 19.7517 26.6238 19.7517 36.1623C19.7517 42.2284 23.8877 45.675 26.3943 45.675C27.4283 45.675 28.0236 43.2969 28.0236 42.6248C28.0236 41.8234 25.5483 40.1173 25.5483 36.7827C25.5483 29.855 31.9402 24.9435 40.2122 24.9435C47.3248 24.9435 52.5887 28.2782 52.5887 34.4045C52.5887 38.9799 50.3641 47.5621 43.1575 47.5621C40.5568 47.5621 38.3322 46.0111 38.3322 43.788C38.3322 40.5309 41.0895 37.3773 41.0895 34.0168C41.0895 28.3126 31.2823 29.3466 31.2823 36.2399C31.2823 37.6875 31.5016 39.2901 32.2849 40.6085C30.8436 45.7267 27.8983 53.3524 27.8983 58.6257C27.8983 60.2543 28.1803 61.857 28.3683 63.4855C28.7234 63.8129 28.5458 63.7785 29.0889 63.6147C34.3529 57.6693 34.1649 56.5061 36.5462 48.7253C37.8309 50.7416 41.1522 51.8273 43.7841 51.8273C54.876 51.8273 59.858 42.9091 59.858 34.8698C59.858 26.3136 50.8967 20.73 41.0582 20.73Z" fill="white"/>
</svg>
