<svg width="17" height="22" viewBox="0 0 17 22" fill="none" xmlns="http://www.w3.org/2000/svg">
<path d="M8.51766 11.747C10.1218 11.747 11.4222 10.4466 11.4222 8.84249C11.4222 7.23838 10.1218 5.93799 8.51766 5.93799C6.91355 5.93799 5.61316 7.23838 5.61316 8.84249C5.61316 10.4466 6.91355 11.747 8.51766 11.747Z" stroke="#FF6900" stroke-width="1.45225" stroke-linecap="round" stroke-linejoin="round"/>
<path d="M15.779 8.84256C15.779 15.3777 8.51773 20.4606 8.51773 20.4606C8.51773 20.4606 1.25647 15.3777 1.25647 8.84256C1.25647 6.91675 2.02149 5.06982 3.38324 3.70807C4.74499 2.34632 6.59192 1.5813 8.51773 1.5813C10.4435 1.5813 12.2905 2.34632 13.6522 3.70807C15.014 5.06982 15.779 6.91675 15.779 8.84256Z" stroke="#FF6900" stroke-width="1.45225" stroke-linecap="round" stroke-linejoin="round"/>
</svg>
