<svg version="1.2" xmlns="http://www.w3.org/2000/svg" viewBox="0 0 1440 704" width="1440" height="704"><defs><linearGradient id="P" gradientUnits="userSpaceOnUse"/><linearGradient id="g1" x2="1" href="#P" gradientTransform="matrix(-16.292,559.258,-1684.262,-49.065,779.897,85.533)"><stop stop-color="#ff6900" stop-opacity=".15"/><stop offset=".76" stop-color="#ff6900" stop-opacity="0"/></linearGradient></defs><style>.a{opacity:.1;fill:#fff}.b{fill:#fff}.c{fill:url(#g1)}.d{fill:none;stroke:#87037b;stroke-linecap:round;stroke-width:2.4}.e{fill:#ffa439}.f{fill:#87037b}</style><path class="a" d="m1292.5 318.6c21.1 36.6 111.4 51.9 153.9 54.9v174.7l-1446.4-3.2v-335c0 0 214.2-116 287.1-83.1 38.9 17.6 79-7 109.1-12.5 22-4.1 33.3 8 76.6 3.7 54.6-5.5 59.3-24.1 94.9-20.2 27.3 3 24.9 5.5 54.2 22.7 18.5 10.9 42.9 14.2 66.6 10.5 42.4-6.6 51.1-50.2 92.7-46.8 41.5 3.3 47.6 38.9 73.4 67.2 14.5 16 23.6 16.5 50 23.8 32.2 8.9 57.7 59 82.2 66.3 26.3 7.9 54.6 4.9 73 0.7 12-2.8 26.2-16.8 46.2-13.1 32.7 6 33.4 30.7 62.6 39.4 26.3 7.9 41.2 8.5 58.9 6.3 32.6-4 38.6-2.1 65 43.7z"/><path class="b" d="m1292.5 318.6c21.1 36.6 111.4 51.9 153.9 54.9v174.7l-1446.4-3.2v-335c0 0 214.2-116 287.1-83.1 38.9 17.6 79-7 109.1-12.5 22-4.1 33.3 8 76.6 3.7 54.6-5.5 59.3-24.1 94.9-20.2 27.3 3 24.9 5.5 54.2 22.7 18.5 10.9 42.9 14.2 66.6 10.5 42.4-6.6 51.1-50.2 92.7-46.8 41.5 3.3 47.6 38.9 73.4 67.2 14.5 16 23.6 16.5 50 23.8 32.2 8.9 57.7 59 82.2 66.3 26.3 7.9 54.6 4.9 73 0.7 12-2.8 26.2-16.8 46.2-13.1 32.7 6 33.4 30.7 62.6 39.4 26.3 7.9 41.2 8.5 58.9 6.3 32.6-4 38.6-2.1 65 43.7z"/><path class="c" d="m1292.5 318.6c21.1 36.6 111.4 51.9 153.9 54.9v174.7l-1446.4-3.2v-335c0 0 214.2-116 287.1-83.1 38.9 17.6 79-7 109.1-12.5 22-4.1 33.3 8 76.6 3.7 54.6-5.5 59.3-24.1 94.9-20.2 27.3 3 24.9 5.5 54.2 22.7 18.5 10.9 42.9 14.2 66.6 10.5 42.4-6.6 51.1-50.2 92.7-46.8 41.5 3.3 47.6 38.9 73.4 67.2 14.5 16 23.6 16.5 50 23.8 32.2 8.9 57.7 59 82.2 66.3 26.3 7.9 54.6 4.9 73 0.7 12-2.8 26.2-16.8 46.2-13.1 32.7 6 33.4 30.7 62.6 39.4 26.3 7.9 41.2 8.5 58.9 6.3 32.6-4 38.6-2.1 65 43.7z"/><path class="d" d="m1446.4 373.5c-42.5-3-132.8-18.3-153.9-54.9-26.4-45.8-14.9-52.8-47.4-48.7-17.8 2.2-45.6 13.1-77.7 0-27.6-11.3-28.7-34.7-61.4-40.7-20-3.7-34.6 9-46.2 13.1-10.7 3.7-46.7 7.2-73-0.7-24.5-7.3-50-57.4-82.2-66.3-26.4-7.3-35.5-7.8-50-23.8-25.8-28.3-31.9-63.9-73.4-67.2-41.6-3.4-50.3 40.2-92.7 46.8-23.7 3.7-48.1 0.4-66.6-10.5-29.3-17.2-26.9-19.7-54.2-22.7-35.6-3.9-40.3 14.7-94.9 20.2-43.3 4.3-57.8-17.5-111.7 7.6-54.3 25.2-126.4-35.9-213.2 13.8-69.4 39.7-132.9 71.4-132.9 71.4"/><path class="e" d="m781.9 96.2c6.9 0 12.6-5.8 12.6-13 0-7.1-5.7-13-12.6-13-7 0-12.6 5.9-12.6 13 0 7.2 5.6 13 12.6 13z"/><path class="f" d="m199.8 132.8c7.2 0 13-5.6 13-12.6 0-7-5.8-12.6-13-12.6-7.2 0-13 5.6-13 12.6 0 7 5.8 12.6 13 12.6z"/><path fill-rule="evenodd" class="b" d="m782.4 58.2c13.9 0.2 25 11.5 24.8 25.4-0.2 13.8-11.5 24.9-25.4 24.8-13.8-0.2-24.9-11.5-24.8-25.4 0.2-13.8 11.6-24.9 25.4-24.8zm-0.1 12.3c-7.1 0-12.9 5.6-12.9 12.7-0.1 7 5.5 12.8 12.6 12.9 7 0 12.8-5.6 12.9-12.7 0.1-7-5.6-12.8-12.6-12.9z"/><path fill-rule="evenodd" class="b" d="m200 95.1c13.9 0.1 25 11.5 24.8 25.3-0.1 13.9-11.5 25-25.3 24.8-13.9-0.1-25-11.5-24.8-25.3 0.1-13.9 11.5-25 25.3-24.8zm-0.1 12.3c-7-0.1-12.8 5.6-12.9 12.6-0.1 7.1 5.6 12.8 12.6 12.9 7.1 0.1 12.8-5.6 12.9-12.6 0.1-7.1-5.5-12.8-12.6-12.9z"/></svg>