<svg width="1728" height="871" viewBox="0 0 1728 871" fill="none" xmlns="http://www.w3.org/2000/svg">
<path opacity="0.1" d="M1558 393.687C1584 438.804 1695.14 457.524 1747.46 461.245L1747.46 676.362L-25.2704 676.362L-14.4676 261.168C-14.4676 261.168 230.704 117.216 320.468 157.755C368.316 179.363 417.707 149.119 454.75 142.32C481.861 137.344 495.801 152.255 548.988 146.896C616.311 140.114 621.993 117.185 665.859 122.032C699.499 125.749 696.456 128.768 732.573 150.038C755.305 163.424 785.403 167.402 814.501 162.904C866.768 154.825 877.396 101.163 928.596 105.277C979.796 109.391 987.247 153.125 1019.01 188.053C1036.91 207.734 1048.05 208.342 1080.52 217.326C1120.24 228.311 1151.62 289.928 1181.78 298.956C1214.05 308.617 1248.97 304.947 1271.64 299.745C1286.33 296.375 1303.8 279.106 1328.44 283.655C1368.66 291.083 1369.52 321.418 1405.53 332.167C1437.94 341.843 1456.21 342.59 1478.07 339.884C1518.08 334.932 1525.5 337.291 1558 393.687Z" fill="url(#paint0_linear_2005_10529)"/>
<path d="M1753.46 457.245C1701.14 453.525 1590 434.804 1564 389.687C1531.5 333.292 1545.69 324.759 1505.68 329.711C1483.82 332.417 1449.5 345.875 1409.99 329.711C1376.03 315.82 1374.66 287.083 1334.44 279.655C1309.8 275.106 1291.86 290.753 1277.64 295.746C1264.43 300.385 1220.05 304.617 1187.78 294.957C1157.62 285.929 1126.24 224.312 1086.52 213.326C1054.04 204.343 1042.91 203.734 1025.01 184.054C993.247 149.125 985.795 105.392 934.596 101.277C883.396 97.163 872.768 150.826 820.501 158.904C791.403 163.402 761.305 159.424 738.573 146.038C702.456 124.769 705.499 121.749 671.858 118.032C627.992 113.185 622.31 136.114 554.987 142.897C501.8 148.255 483.902 121.343 417.532 152.212C350.734 183.281 261.993 108.031 155.142 169.19C69.6606 218.117 -8.46795 257.168 -8.46795 257.168" stroke="#87037B" stroke-opacity="0.1" stroke-width="3" stroke-linecap="round"/>
<g filter="url(#filter0_d_2005_10529)">
<ellipse cx="15.5" cy="16" rx="15.5" ry="16" transform="matrix(-1 0 0 1 951 83.9998)" fill="#FFA439"/>
</g>
<g filter="url(#filter1_d_2005_10529)">
<ellipse cx="16" cy="15.5" rx="16" ry="15.5" transform="matrix(-1 0 0 1 235 130)" fill="#87037B"/>
</g>
<g filter="url(#filter2_d_2005_10529)">
<path d="M904.93 99.7329C904.74 116.781 918.406 130.755 935.453 130.945C952.501 131.135 966.475 117.469 966.665 100.421C966.855 83.3737 953.189 69.3997 936.142 69.2096C919.094 69.0195 905.12 82.6853 904.93 99.7329ZM951.511 100.252C951.414 108.931 944.3 115.887 935.622 115.79C926.944 115.694 919.988 108.58 920.084 99.9019C920.181 91.2238 927.295 84.2672 935.973 84.3639C944.651 84.4607 951.608 91.5742 951.511 100.252Z" fill="white"/>
</g>
<g filter="url(#filter3_d_2005_10529)">
<path d="M188.099 145.084C187.909 162.132 201.575 176.106 218.623 176.296C235.67 176.486 249.644 162.82 249.834 145.772C250.025 128.725 236.359 114.751 219.311 114.561C202.263 114.371 188.29 128.036 188.099 145.084ZM234.68 145.603C234.583 154.282 227.47 161.238 218.792 161.141C210.114 161.045 203.157 153.931 203.254 145.253C203.35 136.575 210.464 129.618 219.142 129.715C227.82 129.812 234.777 136.925 234.68 145.603Z" fill="white"/>
</g>
<defs>
<filter id="filter0_d_2005_10529" x="910" y="75.9998" width="51" height="52" filterUnits="userSpaceOnUse" color-interpolation-filters="sRGB">
<feFlood flood-opacity="0" result="BackgroundImageFix"/>
<feColorMatrix in="SourceAlpha" type="matrix" values="0 0 0 0 0 0 0 0 0 0 0 0 0 0 0 0 0 0 127 0" result="hardAlpha"/>
<feOffset dy="2"/>
<feGaussianBlur stdDeviation="5"/>
<feComposite in2="hardAlpha" operator="out"/>
<feColorMatrix type="matrix" values="0 0 0 0 0.486275 0 0 0 0 0.552941 0 0 0 0 0.709804 0 0 0 0.12 0"/>
<feBlend mode="normal" in2="BackgroundImageFix" result="effect1_dropShadow_2005_10529"/>
<feBlend mode="normal" in="SourceGraphic" in2="effect1_dropShadow_2005_10529" result="shape"/>
</filter>
<filter id="filter1_d_2005_10529" x="193" y="122" width="52" height="51" filterUnits="userSpaceOnUse" color-interpolation-filters="sRGB">
<feFlood flood-opacity="0" result="BackgroundImageFix"/>
<feColorMatrix in="SourceAlpha" type="matrix" values="0 0 0 0 0 0 0 0 0 0 0 0 0 0 0 0 0 0 127 0" result="hardAlpha"/>
<feOffset dy="2"/>
<feGaussianBlur stdDeviation="5"/>
<feComposite in2="hardAlpha" operator="out"/>
<feColorMatrix type="matrix" values="0 0 0 0 0.486275 0 0 0 0 0.552941 0 0 0 0 0.709804 0 0 0 0.12 0"/>
<feBlend mode="normal" in2="BackgroundImageFix" result="effect1_dropShadow_2005_10529"/>
<feBlend mode="normal" in="SourceGraphic" in2="effect1_dropShadow_2005_10529" result="shape"/>
</filter>
<filter id="filter2_d_2005_10529" x="888.928" y="57.2076" width="93.7388" height="93.739" filterUnits="userSpaceOnUse" color-interpolation-filters="sRGB">
<feFlood flood-opacity="0" result="BackgroundImageFix"/>
<feColorMatrix in="SourceAlpha" type="matrix" values="0 0 0 0 0 0 0 0 0 0 0 0 0 0 0 0 0 0 127 0" result="hardAlpha"/>
<feOffset dy="4"/>
<feGaussianBlur stdDeviation="8"/>
<feComposite in2="hardAlpha" operator="out"/>
<feColorMatrix type="matrix" values="0 0 0 0 0.94902 0 0 0 0 0.219608 0 0 0 0 0.278431 0 0 0 0.1 0"/>
<feBlend mode="normal" in2="BackgroundImageFix" result="effect1_dropShadow_2005_10529"/>
<feBlend mode="normal" in="SourceGraphic" in2="effect1_dropShadow_2005_10529" result="shape"/>
</filter>
<filter id="filter3_d_2005_10529" x="172.098" y="102.559" width="93.7388" height="93.739" filterUnits="userSpaceOnUse" color-interpolation-filters="sRGB">
<feFlood flood-opacity="0" result="BackgroundImageFix"/>
<feColorMatrix in="SourceAlpha" type="matrix" values="0 0 0 0 0 0 0 0 0 0 0 0 0 0 0 0 0 0 127 0" result="hardAlpha"/>
<feOffset dy="4"/>
<feGaussianBlur stdDeviation="8"/>
<feComposite in2="hardAlpha" operator="out"/>
<feColorMatrix type="matrix" values="0 0 0 0 0.94902 0 0 0 0 0.219608 0 0 0 0 0.278431 0 0 0 0.1 0"/>
<feBlend mode="normal" in2="BackgroundImageFix" result="effect1_dropShadow_2005_10529"/>
<feBlend mode="normal" in="SourceGraphic" in2="effect1_dropShadow_2005_10529" result="shape"/>
</filter>
<linearGradient id="paint0_linear_2005_10529" x1="927.053" y1="106.82" x2="906.999" y2="795.209" gradientUnits="userSpaceOnUse">
<stop stop-color="#EE8E92"/>
<stop offset="0.759842" stop-color="#EE8E92" stop-opacity="0"/>
</linearGradient>
</defs>
</svg>
