<svg width="32" height="32" viewBox="0 0 32 32" fill="none" xmlns="http://www.w3.org/2000/svg">
<g clip-path="url(#clip0_60_1419)">
<path d="M16 32C7.17733 32 0 24.8227 0 16C0 7.17733 7.17733 0 16 0C24.8227 0 32 7.17733 32 16C32 24.8227 24.8227 32 16 32ZM16 2.66667C8.648 2.66667 2.66667 8.648 2.66667 16C2.66667 23.352 8.648 29.3333 16 29.3333C23.352 29.3333 29.3333 23.352 29.3333 16C29.3333 8.648 23.352 2.66667 16 2.66667ZM22.6667 16C22.6667 15.6464 22.5262 15.3072 22.2761 15.0572C22.0261 14.8071 21.687 14.6667 21.3333 14.6667H17.3333V8C17.3333 7.64638 17.1929 7.30724 16.9428 7.05719C16.6928 6.80714 16.3536 6.66667 16 6.66667C15.6464 6.66667 15.3072 6.80714 15.0572 7.05719C14.8071 7.30724 14.6667 7.64638 14.6667 8V16C14.6667 16.3536 14.8071 16.6928 15.0572 16.9428C15.3072 17.1929 15.6464 17.3333 16 17.3333H21.3333C21.687 17.3333 22.0261 17.1929 22.2761 16.9428C22.5262 16.6928 22.6667 16.3536 22.6667 16Z" fill="white"/>
</g>
<defs>
<clipPath id="clip0_60_1419">
<rect width="32" height="32" fill="white"/>
</clipPath>
</defs>
</svg>
