<svg width="32" height="32" viewBox="0 0 32 32" fill="none" xmlns="http://www.w3.org/2000/svg">
<g clip-path="url(#clip0_1_818)">
<path d="M15.9998 32C7.17709 32 -0.000244141 24.8227 -0.000244141 16C-0.000244141 7.17733 7.17709 0 15.9998 0C24.8224 0 31.9998 7.17733 31.9998 16C31.9998 24.8227 24.8224 32 15.9998 32ZM15.9998 2.66667C8.64776 2.66667 2.66642 8.648 2.66642 16C2.66642 23.352 8.64776 29.3333 15.9998 29.3333C23.3518 29.3333 29.3331 23.352 29.3331 16C29.3331 8.648 23.3518 2.66667 15.9998 2.66667ZM22.6664 16C22.6664 15.6464 22.5259 15.3072 22.2759 15.0572C22.0259 14.8071 21.6867 14.6667 21.3331 14.6667H17.3331V8C17.3331 7.64638 17.1926 7.30724 16.9426 7.05719C16.6925 6.80714 16.3534 6.66667 15.9998 6.66667C15.6461 6.66667 15.307 6.80714 15.0569 7.05719C14.8069 7.30724 14.6664 7.64638 14.6664 8V16C14.6664 16.3536 14.8069 16.6928 15.0569 16.9428C15.307 17.1929 15.6461 17.3333 15.9998 17.3333H21.3331C21.6867 17.3333 22.0259 17.1929 22.2759 16.9428C22.5259 16.6928 22.6664 16.3536 22.6664 16Z" fill="#414141"/>
</g>
<defs>
<clipPath id="clip0_1_818">
<rect width="32" height="32" fill="white" transform="translate(-0.000244141)"/>
</clipPath>
</defs>
</svg>
