<svg width="38" height="32" viewBox="0 0 38 32" fill="none" xmlns="http://www.w3.org/2000/svg">
<path d="M37.1195 16.9739L23.2491 31.2403C22.9599 31.5377 22.5677 31.7048 22.1587 31.7048C21.7498 31.7048 21.3575 31.5377 21.0684 31.2403C20.7792 30.9429 20.6167 30.5394 20.6167 30.1188C20.6167 29.6982 20.7792 29.2948 21.0684 28.9973L32.3092 17.4376L2.12368 17.4376C1.71494 17.4376 1.32294 17.2706 1.03391 16.9733C0.744891 16.676 0.58252 16.2728 0.58252 15.8524C0.58252 15.432 0.744891 15.0288 1.03391 14.7315C1.32294 14.4343 1.71494 14.2673 2.12368 14.2673L32.3092 14.2673L21.0684 2.70753C20.7792 2.41009 20.6167 2.00668 20.6167 1.58604C20.6167 1.16539 20.7792 0.761978 21.0684 0.464539C21.3575 0.1671 21.7498 0 22.1587 0C22.5677 0 22.9599 0.1671 23.2491 0.464539L37.1195 14.7309C37.2628 14.8781 37.3765 15.053 37.454 15.2454C37.5316 15.4378 37.5715 15.6441 37.5715 15.8524C37.5715 16.0607 37.5316 16.267 37.454 16.4594C37.3765 16.6519 37.2628 16.8267 37.1195 16.9739Z" fill="white"/>
</svg>
