<svg width="48" height="49" viewBox="0 0 48 49" fill="none" xmlns="http://www.w3.org/2000/svg">
<rect y="0.629883" width="48" height="48" rx="24" fill="#FFA439"/>
<path d="M24 15C22.0222 15 20.0888 15.5865 18.4443 16.6853C16.7998 17.7841 15.5181 19.3459 14.7612 21.1732C14.0043 23.0004 13.8063 25.0111 14.1922 26.9509C14.578 28.8907 15.5304 30.6725 16.9289 32.0711C18.3275 33.4696 20.1093 34.422 22.0491 34.8078C23.9889 35.1937 25.9996 34.9957 27.8268 34.2388C29.6541 33.4819 31.2159 32.2002 32.3147 30.5557C33.4135 28.9112 34 26.9778 34 25C33.9972 22.3487 32.9427 19.8068 31.068 17.932C29.1932 16.0573 26.6513 15.0028 24 15ZM24 33.4615C22.3265 33.4615 20.6905 32.9653 19.299 32.0355C17.9075 31.1057 16.823 29.7842 16.1826 28.2381C15.5421 26.6919 15.3746 24.9906 15.7011 23.3492C16.0275 21.7079 16.8334 20.2002 18.0168 19.0168C19.2002 17.8334 20.7079 17.0275 22.3492 16.701C23.9906 16.3746 25.6919 16.5421 27.2381 17.1826C28.7842 17.823 30.1057 18.9075 31.0355 20.299C31.9653 21.6905 32.4615 23.3265 32.4615 25C32.459 27.2434 31.5667 29.3941 29.9804 30.9804C28.3941 32.5667 26.2434 33.459 24 33.4615ZM30.1538 25C30.1538 25.204 30.0728 25.3997 29.9285 25.5439C29.7843 25.6882 29.5886 25.7692 29.3846 25.7692H24C23.796 25.7692 23.6003 25.6882 23.4561 25.5439C23.3118 25.3997 23.2308 25.204 23.2308 25V19.6154C23.2308 19.4114 23.3118 19.2157 23.4561 19.0715C23.6003 18.9272 23.796 18.8462 24 18.8462C24.204 18.8462 24.3997 18.9272 24.5439 19.0715C24.6882 19.2157 24.7692 19.4114 24.7692 19.6154V24.2308H29.3846C29.5886 24.2308 29.7843 24.3118 29.9285 24.4561C30.0728 24.6003 30.1538 24.796 30.1538 25Z" fill="white"/>
</svg>
