<svg width="97" height="97" viewBox="0 0 97 97" fill="none" xmlns="http://www.w3.org/2000/svg">
<g filter="url(#filter0_d_34_2177)">
<circle cx="48.5" cy="48.5005" r="39.6001" transform="rotate(165 48.5 48.5005)" fill="url(#paint0_linear_34_2177)"/>
</g>
<path d="M52.7509 40.6667C53.826 40.6667 54.877 40.3539 55.771 39.7678C56.6649 39.1818 57.3617 38.3489 57.7731 37.3743C58.1846 36.3998 58.2922 35.3274 58.0825 34.2929C57.8727 33.2583 57.355 32.308 56.5947 31.5621C55.8345 30.8162 54.8659 30.3083 53.8114 30.1025C52.7569 29.8967 51.6639 30.0023 50.6706 30.406C49.6773 30.8096 48.8283 31.4932 48.231 32.3703C47.6337 33.2474 47.3149 34.2785 47.3149 35.3333C47.3149 36.7478 47.8876 38.1044 48.907 39.1046C49.9265 40.1048 51.3092 40.6667 52.7509 40.6667ZM52.7509 32.6667C53.2885 32.6667 53.814 32.8231 54.2609 33.1161C54.7079 33.4091 55.0563 33.8256 55.262 34.3128C55.4677 34.8001 55.5216 35.3363 55.4167 35.8536C55.3118 36.3709 55.0529 36.846 54.6728 37.219C54.2927 37.5919 53.8084 37.8459 53.2811 37.9488C52.7539 38.0517 52.2074 37.9988 51.7108 37.797C51.2141 37.5952 50.7896 37.2534 50.4909 36.8149C50.1923 36.3763 50.0329 35.8608 50.0329 35.3333C50.0329 34.6261 50.3192 33.9478 50.829 33.4477C51.3387 32.9476 52.03 32.6667 52.7509 32.6667ZM64.1852 49.4467C64.0816 49.4933 62.9129 49.9933 60.8438 49.9933C58.491 49.9933 54.9746 49.3467 50.534 46.66C49.8582 48.5424 48.9806 50.3492 47.9162 52.05C49.8281 52.6274 51.6264 53.5184 53.235 54.685C56.4746 57.1083 58.1869 60.5583 58.1869 64.6667C58.1869 65.0203 58.0437 65.3594 57.7889 65.6095C57.534 65.8595 57.1883 66 56.8279 66C56.4675 66 56.1218 65.8595 55.8669 65.6095C55.6121 65.3594 55.4689 65.0203 55.4689 64.6667C55.4689 57.7167 49.5759 55.215 46.2718 54.3583C46.1784 54.475 46.0816 54.5933 45.9847 54.7083C42.6484 58.675 38.4677 60.7383 33.8165 60.7383C33.2868 60.7408 32.7572 60.7168 32.2299 60.6667C31.8695 60.6313 31.5381 60.4569 31.3087 60.1819C31.0794 59.9068 30.9707 59.5536 31.0068 59.2C31.0428 58.8464 31.2206 58.5213 31.5009 58.2962C31.7813 58.0712 32.1413 57.9646 32.5017 58C36.9049 58.43 40.7356 56.7517 43.8834 53C46.0051 50.4767 47.4508 47.3983 48.1727 45.1667C41.5612 41.3917 37.3381 44.605 37.2922 44.64C37.1538 44.756 36.993 44.8435 36.8194 44.8973C36.6458 44.9512 36.463 44.9703 36.2818 44.9534C36.1006 44.9366 35.9246 44.8843 35.7644 44.7995C35.6042 44.7147 35.463 44.5992 35.3492 44.4598C35.2353 44.3204 35.1512 44.16 35.1018 43.9881C35.0523 43.8162 35.0386 43.6363 35.0614 43.4592C35.0842 43.282 35.143 43.1111 35.2344 42.9566C35.3258 42.8021 35.4479 42.6673 35.5934 42.56C35.8482 42.36 41.9162 37.7267 50.799 43.655C58.5233 48.8067 63.0182 47.04 63.0607 47.02C63.2235 46.9446 63.3999 46.9016 63.5798 46.8937C63.7597 46.8857 63.9394 46.9129 64.1085 46.9737C64.2775 47.0344 64.4326 47.1276 64.5647 47.2476C64.6968 47.3677 64.8032 47.5123 64.8778 47.6731C64.9524 47.8339 64.9937 48.0076 64.9993 48.1842C65.0049 48.3607 64.9747 48.5366 64.9104 48.7016C64.8462 48.8667 64.7491 49.0175 64.6249 49.1454C64.5007 49.2733 64.3518 49.3757 64.1869 49.4467H64.1852Z" fill="white"/>
<defs>
<filter id="filter0_d_34_2177" x="4.89014" y="4.89062" width="87.2197" height="87.2197" filterUnits="userSpaceOnUse" color-interpolation-filters="sRGB">
<feFlood flood-opacity="0" result="BackgroundImageFix"/>
<feColorMatrix in="SourceAlpha" type="matrix" values="0 0 0 0 0 0 0 0 0 0 0 0 0 0 0 0 0 0 127 0" result="hardAlpha"/>
<feOffset/>
<feGaussianBlur stdDeviation="2"/>
<feComposite in2="hardAlpha" operator="out"/>
<feColorMatrix type="matrix" values="0 0 0 0 0 0 0 0 0 0 0 0 0 0 0 0 0 0 0.25 0"/>
<feBlend mode="normal" in2="BackgroundImageFix" result="effect1_dropShadow_34_2177"/>
<feBlend mode="normal" in="SourceGraphic" in2="effect1_dropShadow_34_2177" result="shape"/>
</filter>
<linearGradient id="paint0_linear_34_2177" x1="47.4813" y1="10.7978" x2="24.2091" y2="80.353" gradientUnits="userSpaceOnUse">
<stop stop-color="#201457"/>
<stop offset="0.401377" stop-color="#87037B"/>
<stop offset="0.761458" stop-color="#CE0037"/>
<stop offset="1" stop-color="#FF6900"/>
</linearGradient>
</defs>
</svg>
