<svg width="97" height="97" viewBox="0 0 97 97" fill="none" xmlns="http://www.w3.org/2000/svg">
<g filter="url(#filter0_d_34_2176)">
<circle cx="48.5" cy="48.5005" r="39.6001" transform="rotate(165 48.5 48.5005)" fill="url(#paint0_linear_34_2176)"/>
</g>
<path d="M61.9399 47.1965C60.9695 47.1961 60.0072 47.368 59.0995 47.704L54.8818 40.6276H59.2555C59.6115 40.6276 59.9529 40.766 60.2046 41.0124C60.4563 41.2588 60.5977 41.5929 60.5977 41.9414C60.5977 42.2898 60.7391 42.624 60.9908 42.8704C61.2425 43.1167 61.5839 43.2552 61.9399 43.2552C62.2958 43.2552 62.6372 43.1167 62.8889 42.8704C63.1406 42.624 63.282 42.2898 63.282 41.9414C63.282 40.8961 62.8578 39.8936 62.1027 39.1544C61.3476 38.4153 60.3234 38 59.2555 38H52.5447C52.3094 38.0005 52.0783 38.0616 51.8747 38.1771C51.6711 38.2927 51.5021 38.4586 51.3847 38.6582C51.2672 38.8578 51.2055 39.0842 51.2056 39.3145C51.2057 39.5449 51.2677 39.7712 51.3854 39.9707L53.3399 43.2552H43.6965L40.9534 38.6569C40.8359 38.4576 40.6669 38.292 40.4635 38.1768C40.26 38.0615 40.0292 38.0005 39.7941 38H35.0965C34.7406 38 34.3992 38.1384 34.1475 38.3848C33.8958 38.6312 33.7544 38.9654 33.7544 39.3138C33.7544 39.6622 33.8958 39.9964 34.1475 40.2428C34.3992 40.4892 34.7406 40.6276 35.0965 40.6276H39.0241L41.3242 44.4885L38.6885 48.0275C36.8776 47.1404 34.7924 46.9517 32.846 47.4989C30.8997 48.046 29.2344 49.289 28.1803 50.9814C27.1262 52.6738 26.7602 54.6922 27.1549 56.6363C27.5495 58.5805 28.676 60.3086 30.3111 61.4779C31.9461 62.6473 33.9703 63.1727 35.9825 62.9499C37.9947 62.7271 39.8478 61.7724 41.1747 60.275C42.5016 58.7776 43.2052 56.8469 43.1462 54.8656C43.0872 52.8842 42.2698 50.9969 40.8561 49.5778L42.8006 46.9666L48.03 55.7362C48.1117 55.8968 48.2262 56.0394 48.3664 56.1551C48.5066 56.2707 48.6695 56.3571 48.8451 56.4088C49.0206 56.4604 49.2052 56.4763 49.3873 56.4555C49.5694 56.4347 49.7452 56.3775 49.9039 56.2876C50.0626 56.1977 50.2007 56.0769 50.3099 55.9327C50.419 55.7885 50.4969 55.624 50.5385 55.4492C50.5802 55.2744 50.5848 55.0931 50.5522 54.9165C50.5195 54.7399 50.4502 54.5717 50.3486 54.4224L45.2618 45.8827H54.9053L56.7826 49.0309C55.3292 50.22 54.3505 51.8726 54.0186 53.6981C53.6867 55.5236 54.0228 57.4053 54.9679 59.0122C55.913 60.6191 57.4066 61.8485 59.186 62.4842C60.9655 63.1199 62.9169 63.1213 64.6973 62.488C66.4776 61.8548 67.973 60.6275 68.9204 59.0218C69.8678 57.4162 70.2067 55.5351 69.8774 53.7091C69.5481 51.8831 68.5718 50.2292 67.1201 49.0381C65.6684 47.8469 63.8341 47.1949 61.9399 47.1965ZM40.4652 55.0793C40.4655 56.2033 40.0977 57.2978 39.4156 58.2021C38.7336 59.1063 37.7733 59.7727 36.6758 60.1034C35.5783 60.434 34.4014 60.4115 33.3179 60.0391C32.2345 59.6667 31.3016 58.9641 30.6561 58.0344C30.0107 57.1048 29.6868 55.997 29.732 54.8738C29.7772 53.7507 30.1892 52.6713 30.9073 51.7942C31.6254 50.9171 32.6119 50.2885 33.722 50.0007C34.832 49.7129 36.007 49.7811 37.0746 50.1952L34.0127 54.3008C33.9013 54.4396 33.8195 54.599 33.7724 54.7694C33.7252 54.9398 33.7136 55.1177 33.7383 55.2926C33.763 55.4675 33.8234 55.6357 33.916 55.7872C34.0086 55.9387 34.1314 56.0704 34.2771 56.1744C34.4229 56.2785 34.5885 56.3526 34.7642 56.3926C34.9399 56.4325 35.122 56.4374 35.2996 56.4069C35.4773 56.3764 35.6468 56.3112 35.7981 56.2151C35.9495 56.1191 36.0795 55.9942 36.1803 55.8478L39.2422 51.7422C40.0339 52.6815 40.4664 53.8615 40.4652 55.0793ZM61.9399 60.3344C60.8765 60.3336 59.8374 60.0238 58.9542 59.4441C58.071 58.8644 57.3835 58.0411 56.979 57.0785C56.5745 56.1159 56.4711 55.0574 56.6819 54.0372C56.8928 53.017 57.4084 52.0811 58.1634 51.3481L60.7806 55.7362C60.8623 55.8968 60.9768 56.0394 61.117 56.1551C61.2571 56.2707 61.4201 56.3571 61.5956 56.4088C61.7712 56.4604 61.9558 56.4763 62.1379 56.4555C62.32 56.4347 62.4958 56.3775 62.6545 56.2876C62.8132 56.1977 62.9513 56.0769 63.0605 55.9327C63.1696 55.7885 63.2474 55.624 63.2891 55.4492C63.3308 55.2744 63.3354 55.0931 63.3028 54.9165C63.2701 54.7399 63.2008 54.5717 63.0992 54.4224L60.4803 50.0228C61.2188 49.8182 61.9935 49.7709 62.7522 49.8842C63.5109 49.9975 64.236 50.2687 64.8786 50.6796C65.5212 51.0904 66.0663 51.6313 66.4772 52.2659C66.888 52.9004 67.1552 53.6138 67.2605 54.358C67.3658 55.1022 67.3069 55.8598 67.0878 56.5798C66.8686 57.2998 66.4943 57.9654 65.9901 58.5318C65.4858 59.0982 64.8634 59.5522 64.1647 59.8631C63.466 60.1741 62.7074 60.3348 61.9399 60.3344Z" fill="white"/>
<defs>
<filter id="filter0_d_34_2176" x="4.89014" y="4.89062" width="87.2197" height="87.2197" filterUnits="userSpaceOnUse" color-interpolation-filters="sRGB">
<feFlood flood-opacity="0" result="BackgroundImageFix"/>
<feColorMatrix in="SourceAlpha" type="matrix" values="0 0 0 0 0 0 0 0 0 0 0 0 0 0 0 0 0 0 127 0" result="hardAlpha"/>
<feOffset/>
<feGaussianBlur stdDeviation="2"/>
<feComposite in2="hardAlpha" operator="out"/>
<feColorMatrix type="matrix" values="0 0 0 0 0 0 0 0 0 0 0 0 0 0 0 0 0 0 0.25 0"/>
<feBlend mode="normal" in2="BackgroundImageFix" result="effect1_dropShadow_34_2176"/>
<feBlend mode="normal" in="SourceGraphic" in2="effect1_dropShadow_34_2176" result="shape"/>
</filter>
<linearGradient id="paint0_linear_34_2176" x1="47.4813" y1="10.7978" x2="24.2091" y2="80.353" gradientUnits="userSpaceOnUse">
<stop stop-color="#201457"/>
<stop offset="0.401377" stop-color="#87037B"/>
<stop offset="0.761458" stop-color="#CE0037"/>
<stop offset="1" stop-color="#FF6900"/>
</linearGradient>
</defs>
</svg>
