<svg width="63" height="62" viewBox="0 0 63 62" fill="none" xmlns="http://www.w3.org/2000/svg">
<path d="M34.3399 0.427408C33.6873 0.370502 33.0301 0.449916 32.4099 0.660605C31.7896 0.871294 31.22 1.20866 30.7372 1.65126C30.2543 2.09387 29.8687 2.63206 29.605 3.23164C29.3412 3.83123 29.205 4.4791 29.205 5.13414V17.1431C29.1969 18.2574 29.5863 19.3381 30.3034 20.1911C31.0205 21.044 32.0183 21.6133 33.1175 21.7967C34.8736 22.0913 36.5108 22.8762 37.8403 24.0609C39.1698 25.2457 40.1374 26.7819 40.6316 28.4927C41.1259 30.2035 41.1266 32.0191 40.6338 33.7303C40.141 35.4415 39.1747 36.9786 37.8462 38.1644C36.5177 39.3503 34.8812 40.1366 33.1252 40.4327C31.3693 40.7288 29.5654 40.5226 27.9215 39.8381C26.2777 39.1535 24.8607 38.0183 23.834 36.5633C22.8072 35.1084 22.2125 33.3929 22.1184 31.6147C21.9974 29.1875 22.4934 27.1855 23.5948 25.6323C24.2421 24.7294 24.5473 23.6257 24.4559 22.5185C24.3645 21.4112 23.8824 20.3726 23.0958 19.588L14.9403 11.2405C14.4754 10.7756 13.9186 10.4128 13.3055 10.1754C12.6925 9.93803 12.0366 9.83119 11.3798 9.86177C10.7231 9.89234 10.08 10.0596 9.49162 10.353C8.90325 10.6463 8.38257 11.0592 7.9629 11.5653C3.04058 17.4649 0.518563 25.0008 0.898241 32.6748C1.27792 40.3489 4.53148 47.599 10.0121 52.9839C15.7428 58.6695 23.4947 61.85 31.5673 61.8275H32.0072C39.993 61.6916 47.6137 58.4585 53.2611 52.8105C58.9085 47.1625 62.1408 39.5415 62.276 31.5556C62.4974 15.522 50.2257 1.85065 34.3399 0.427408ZM11.583 14.5653L19.7356 22.8892V22.9069C18.5254 24.6435 17.7655 26.6535 17.5239 28.7564H5.68928C6.16235 23.5361 8.21867 18.5848 11.583 14.5653ZM5.69223 33.4808H17.5918C18.0817 36.3832 19.4631 39.0611 21.5442 41.1428C23.6252 43.2244 26.3028 44.6064 29.205 45.097V56.9967C23.155 56.444 17.4898 53.7888 13.1942 49.4927C8.89864 45.1965 6.24418 39.531 5.69223 33.4808ZM49.9157 49.4672C45.637 53.7757 39.9767 56.4386 33.9295 56.9879V45.097C36.6669 44.6414 39.208 43.3847 41.2316 41.4858C43.1663 39.6833 44.5581 37.3756 45.2499 34.8234C45.9416 32.2713 45.9056 29.5765 45.1459 27.0438C44.3862 24.5111 42.9332 22.2413 40.9511 20.4912C38.969 18.7411 36.5368 17.5803 33.9295 17.1401V5.13414C47.3704 6.33887 57.7494 17.9138 57.5515 31.4877C57.4587 38.2495 54.7171 44.7051 49.9157 49.4672Z" fill="white"/>
</svg>
