<svg width="69" height="59" viewBox="0 0 69 59" fill="none" xmlns="http://www.w3.org/2000/svg">
<path d="M67.225 17.0849L35.5557 0.238655C35.2502 0.0764261 34.9095 -0.00842285 34.5634 -0.00842285C34.2173 -0.00842285 33.8765 0.0764261 33.5711 0.238655L1.90177 17.0849C1.56398 17.2644 1.28148 17.5322 1.08449 17.8595C0.887506 18.1868 0.783447 18.5614 0.783447 18.9432C0.783447 19.325 0.887506 19.6996 1.08449 20.0269C1.28148 20.3542 1.56398 20.622 1.90177 20.8015L9.22794 24.6999V37.4451C9.22574 38.4794 9.60741 39.478 10.2994 40.2484C13.7566 44.0888 21.5024 50.5298 34.5634 50.5298C38.894 50.5655 43.1923 49.7832 47.2311 48.224V56.8471C47.2311 57.4056 47.4535 57.9412 47.8495 58.3361C48.2454 58.7311 48.7824 58.9529 49.3424 58.9529C49.9023 58.9529 50.4394 58.7311 50.8353 58.3361C51.2312 57.9412 51.4537 57.4056 51.4537 56.8471V46.1893C54.2068 44.6041 56.6947 42.5997 58.8273 40.2484C59.5194 39.478 59.901 38.4794 59.8988 37.4451V24.6999L67.225 20.8015C67.5628 20.622 67.8453 20.3542 68.0423 20.0269C68.2393 19.6996 68.3433 19.325 68.3433 18.9432C68.3433 18.5614 68.2393 18.1868 68.0423 17.8595C67.8453 17.5322 67.5628 17.2644 67.225 17.0849ZM34.5634 46.3183C23.144 46.3183 16.4274 40.7538 13.4505 37.4451V26.9451L33.5711 37.6477C33.8765 37.81 34.2173 37.8948 34.5634 37.8948C34.9095 37.8948 35.2502 37.81 35.5557 37.6477L47.2311 31.4383V43.636C43.9058 45.1838 39.7149 46.3183 34.5634 46.3183ZM55.6763 37.4345C54.4107 38.8353 52.9946 40.0931 51.4537 41.1854V29.1904L55.6763 26.9451V37.4345ZM50.398 24.9815L50.34 24.9473L35.561 17.0849C35.0679 16.8337 34.4956 16.7857 33.9674 16.9513C33.4392 17.1169 32.9974 17.4829 32.7371 17.9703C32.4768 18.4577 32.419 19.0276 32.5759 19.5572C32.7329 20.0868 33.0922 20.5336 33.5764 20.8015L45.9115 27.3663L34.5634 33.402L7.38056 18.9432L34.5634 4.48442L61.7462 18.9432L50.398 24.9815Z" fill="white"/>
</svg>
