<svg width="95" height="95" viewBox="0 0 95 95" fill="none" xmlns="http://www.w3.org/2000/svg">
<g filter="url(#filter0_d_2139_10095)">
<ellipse cx="15.5" cy="16" rx="15.5" ry="16" transform="matrix(-1 0 0 1 62.4141 27.1344)" fill="#FFA439"/>
</g>
<g filter="url(#filter1_d_2139_10095)">
<path d="M16.3445 42.8676C16.1544 59.9152 29.8202 73.8892 46.8678 74.0793C63.9155 74.2694 77.8895 60.6037 78.0796 43.556C78.2697 26.5083 64.604 12.5343 47.5563 12.3442C30.5086 12.1541 16.5346 25.8199 16.3445 42.8676ZM62.9253 43.387C62.8285 52.0652 55.715 59.0218 47.0368 58.925C38.3587 58.8282 31.4021 51.7147 31.4988 43.0365C31.5956 34.3584 38.7091 27.4018 47.3873 27.4985C56.0655 27.5953 63.0221 34.7088 62.9253 43.387Z" fill="white"/>
</g>
<defs>
<filter id="filter0_d_2139_10095" x="21.4141" y="19.1344" width="51" height="52" filterUnits="userSpaceOnUse" color-interpolation-filters="sRGB">
<feFlood flood-opacity="0" result="BackgroundImageFix"/>
<feColorMatrix in="SourceAlpha" type="matrix" values="0 0 0 0 0 0 0 0 0 0 0 0 0 0 0 0 0 0 127 0" result="hardAlpha"/>
<feOffset dy="2"/>
<feGaussianBlur stdDeviation="5"/>
<feComposite in2="hardAlpha" operator="out"/>
<feColorMatrix type="matrix" values="0 0 0 0 0.486275 0 0 0 0 0.552941 0 0 0 0 0.709804 0 0 0 0.12 0"/>
<feBlend mode="normal" in2="BackgroundImageFix" result="effect1_dropShadow_2139_10095"/>
<feBlend mode="normal" in="SourceGraphic" in2="effect1_dropShadow_2139_10095" result="shape"/>
</filter>
<filter id="filter1_d_2139_10095" x="0.342773" y="0.342255" width="93.7393" height="93.739" filterUnits="userSpaceOnUse" color-interpolation-filters="sRGB">
<feFlood flood-opacity="0" result="BackgroundImageFix"/>
<feColorMatrix in="SourceAlpha" type="matrix" values="0 0 0 0 0 0 0 0 0 0 0 0 0 0 0 0 0 0 127 0" result="hardAlpha"/>
<feOffset dy="4"/>
<feGaussianBlur stdDeviation="8"/>
<feComposite in2="hardAlpha" operator="out"/>
<feColorMatrix type="matrix" values="0 0 0 0 0.94902 0 0 0 0 0.219608 0 0 0 0 0.278431 0 0 0 0.1 0"/>
<feBlend mode="normal" in2="BackgroundImageFix" result="effect1_dropShadow_2139_10095"/>
<feBlend mode="normal" in="SourceGraphic" in2="effect1_dropShadow_2139_10095" result="shape"/>
</filter>
</defs>
</svg>
