<svg width="21" height="18" viewBox="0 0 21 18" fill="none" xmlns="http://www.w3.org/2000/svg">
<path d="M20.7434 9.63671L12.8686 17.7363C12.7045 17.9051 12.4818 18 12.2496 18C12.0174 18 11.7947 17.9051 11.6306 17.7363C11.4664 17.5674 11.3741 17.3384 11.3741 17.0995C11.3741 16.8607 11.4664 16.6317 11.6306 16.4628L18.0124 9.89995H0.874971C0.642914 9.89995 0.420362 9.80513 0.256273 9.63636C0.0921844 9.46759 0 9.23868 0 9C0 8.76132 0.0921844 8.53241 0.256273 8.36364C0.420362 8.19487 0.642914 8.10005 0.874971 8.10005H18.0124L11.6306 1.53716C11.4664 1.3683 11.3741 1.13926 11.3741 0.90045C11.3741 0.661636 11.4664 0.432603 11.6306 0.263736C11.7947 0.0948685 12.0174 0 12.2496 0C12.4818 0 12.7045 0.0948685 12.8686 0.263736L20.7434 8.36328C20.8247 8.44687 20.8893 8.54612 20.9333 8.65537C20.9773 8.76462 21 8.88173 21 9C21 9.11827 20.9773 9.23537 20.9333 9.34463C20.8893 9.45388 20.8247 9.55313 20.7434 9.63671Z" fill="#FF6900"/>
</svg>
