<svg width="123" height="123" viewBox="0 0 123 123" fill="none" xmlns="http://www.w3.org/2000/svg">
<g filter="url(#filter0_d_1_2119)">
<circle cx="61.6123" cy="61.6123" r="55.6123" fill="url(#paint0_linear_1_2119)"/>
</g>
<path d="M53.2 48H47.8C46.8059 48 46 48.7711 46 49.7222V77.2778C46 78.2289 46.8059 79 47.8 79H53.2C54.1941 79 55 78.2289 55 77.2778V49.7222C55 48.7711 54.1941 48 53.2 48Z" stroke="white" stroke-width="2" stroke-linecap="round" stroke-linejoin="round"/>
<path d="M75.2 48H69.8C68.8059 48 68 48.7711 68 49.7222V77.2778C68 78.2289 68.8059 79 69.8 79H75.2C76.1941 79 77 78.2289 77 77.2778V49.7222C77 48.7711 76.1941 48 75.2 48Z" stroke="white" stroke-width="2" stroke-linecap="round" stroke-linejoin="round"/>
<path d="M77 54H82.25C82.7141 54 83.1592 54.1756 83.4874 54.4882C83.8156 54.8007 84 55.2246 84 55.6667V72.3333C84 72.7754 83.8156 73.1993 83.4874 73.5118C83.1592 73.8244 82.7141 74 82.25 74H77" stroke="white" stroke-width="2" stroke-linecap="round" stroke-linejoin="round"/>
<path d="M46 74H40.75C40.2859 74 39.8408 73.8244 39.5126 73.5118C39.1844 73.1993 39 72.7754 39 72.3333V55.6667C39 55.2246 39.1844 54.8007 39.5126 54.4882C39.8408 54.1756 40.2859 54 40.75 54H46" stroke="white" stroke-width="2" stroke-linecap="round" stroke-linejoin="round"/>
<path d="M55 64H68" stroke="white" stroke-width="2" stroke-linecap="round" stroke-linejoin="round"/>
<path d="M84 64H87" stroke="white" stroke-width="2" stroke-linecap="round" stroke-linejoin="round"/>
<path d="M36 64H39" stroke="white" stroke-width="2" stroke-linecap="round" stroke-linejoin="round"/>
<defs>
<filter id="filter0_d_1_2119" x="0.382609" y="0.382609" width="122.459" height="122.459" filterUnits="userSpaceOnUse" color-interpolation-filters="sRGB">
<feFlood flood-opacity="0" result="BackgroundImageFix"/>
<feColorMatrix in="SourceAlpha" type="matrix" values="0 0 0 0 0 0 0 0 0 0 0 0 0 0 0 0 0 0 127 0" result="hardAlpha"/>
<feOffset/>
<feGaussianBlur stdDeviation="2.8087"/>
<feComposite in2="hardAlpha" operator="out"/>
<feColorMatrix type="matrix" values="0 0 0 0 0 0 0 0 0 0 0 0 0 0 0 0 0 0 0.25 0"/>
<feBlend mode="normal" in2="BackgroundImageFix" result="effect1_dropShadow_1_2119"/>
<feBlend mode="normal" in="SourceGraphic" in2="effect1_dropShadow_1_2119" result="shape"/>
</filter>
<linearGradient id="paint0_linear_1_2119" x1="60.1817" y1="8.66468" x2="27.4994" y2="106.344" gradientUnits="userSpaceOnUse">
<stop stop-color="#201457"/>
<stop offset="0.401377" stop-color="#87037B"/>
<stop offset="0.761458" stop-color="#CE0037"/>
<stop offset="1" stop-color="#FF6900"/>
</linearGradient>
</defs>
</svg>
