<svg width="29" height="27" viewBox="0 0 29 27" fill="none" xmlns="http://www.w3.org/2000/svg">
<path d="M28.6328 10.161C28.5117 9.78773 28.2835 9.45834 27.9765 9.21384C27.6696 8.96935 27.2975 8.82056 26.9066 8.786L19.4828 8.146L16.5728 1.226C16.4213 0.862896 16.1658 0.552735 15.8384 0.334573C15.5109 0.11641 15.1263 0 14.7328 0C14.3394 0 13.9547 0.11641 13.6273 0.334573C13.2999 0.552735 13.0443 0.862896 12.8928 1.226L9.99159 8.146L2.55909 8.78975C2.16663 8.82273 1.79265 8.97084 1.48404 9.21552C1.17542 9.4602 0.945921 9.79055 0.824305 10.1651C0.70269 10.5397 0.694377 10.9419 0.80041 11.3212C0.906443 11.7005 1.1221 12.04 1.42034 12.2973L7.05909 17.2248L5.36909 24.5422C5.27973 24.9252 5.30523 25.326 5.4424 25.6945C5.57957 26.063 5.82234 26.3829 6.14033 26.6142C6.45833 26.8455 6.83746 26.9779 7.23031 26.9949C7.62316 27.0119 8.0123 26.9127 8.34909 26.7097L14.7241 22.8347L21.1128 26.7097C21.4496 26.9127 21.8388 27.0119 22.2316 26.9949C22.6245 26.9779 23.0036 26.8455 23.3216 26.6142C23.6396 26.3829 23.8824 26.063 24.0195 25.6945C24.1567 25.326 24.1822 24.9252 24.0928 24.5422L22.4041 17.2173L28.0416 12.2973C28.3398 12.0391 28.555 11.6986 28.6602 11.3185C28.7654 10.9384 28.7559 10.5357 28.6328 10.161ZM26.7303 10.786L21.0928 15.706C20.8185 15.9447 20.6144 16.2536 20.5025 16.5996C20.3906 16.9457 20.3752 17.3156 20.4578 17.6698L22.1516 24.9998L15.7678 21.1248C15.4564 20.9351 15.0988 20.8348 14.7341 20.8348C14.3694 20.8348 14.0118 20.9351 13.7003 21.1248L7.32534 24.9998L9.00784 17.6747C9.09053 17.3206 9.0751 16.9507 8.96321 16.6046C8.85132 16.2586 8.64721 15.9497 8.37284 15.711L2.73284 10.7935C2.73238 10.7898 2.73238 10.786 2.73284 10.7823L10.1628 10.1398C10.5256 10.1078 10.8727 9.97737 11.1668 9.76259C11.4609 9.54781 11.6907 9.25682 11.8316 8.921L14.7328 2.00975L17.6328 8.921C17.7737 9.25682 18.0035 9.54781 18.2976 9.76259C18.5917 9.97737 18.9388 10.1078 19.3016 10.1398L26.7328 10.7823C26.7328 10.7823 26.7328 10.7898 26.7328 10.791L26.7303 10.786Z" fill="white"/>
</svg>
