<svg width="1728" height="464" viewBox="0 0 1728 464" fill="none" xmlns="http://www.w3.org/2000/svg">
<path d="M159.645 133.093C132.559 177.565 36.3946 198.051 -15.9997 200.5L-15.9998 437L1734 463.5L1750.62 179.429C1750.62 179.429 1563.74 17.7813 1398.19 70.3583C1355.35 83.9643 1321.29 56.9212 1284.42 49.2251C1257.44 43.5926 1243.14 58.1605 1190.1 51.5125C1122.96 43.0977 1117.84 20.0373 1073.87 23.8178C1040.15 26.7171 1043.12 29.8098 1006.49 50.1959C983.443 63.0265 953.257 66.2723 924.277 61.0696C872.222 51.7242 862.899 -2.18052 811.615 0.689705C760.33 3.55993 751.819 47.0996 719.214 81.2465C700.843 100.487 689.699 100.825 657.013 109.017C617.041 119.035 568.424 39.2304 538.055 47.5235C505.558 56.3978 470.735 51.8816 448.198 46.1307C433.596 42.4045 416.552 24.7163 391.814 28.6661C351.421 35.1153 349.828 65.4205 313.566 75.2926C280.928 84.1783 262.643 84.4821 240.857 81.2466C200.983 75.3248 193.504 77.5026 159.645 133.093Z" fill="white"/>
<path d="M159.645 133.093C132.559 177.565 36.3946 198.051 -15.9997 200.5L-15.9998 437L1734 463.5L1750.62 179.429C1750.62 179.429 1563.74 17.7813 1398.19 70.3583C1355.35 83.9643 1321.29 56.9212 1284.42 49.2251C1257.44 43.5926 1243.14 58.1605 1190.1 51.5125C1122.96 43.0977 1117.84 20.0373 1073.87 23.8178C1040.15 26.7171 1043.12 29.8098 1006.49 50.1959C983.443 63.0265 953.257 66.2723 924.277 61.0696C872.222 51.7242 862.899 -2.18052 811.615 0.689705C760.33 3.55993 751.819 47.0996 719.214 81.2465C700.843 100.487 689.699 100.825 657.013 109.017C617.041 119.035 568.424 39.2304 538.055 47.5235C505.558 56.3978 470.735 51.8816 448.198 46.1307C433.596 42.4045 416.552 24.7163 391.814 28.6661C351.421 35.1153 349.828 65.4205 313.566 75.2926C280.928 84.1783 262.643 84.4821 240.857 81.2466C200.983 75.3248 193.504 77.5026 159.645 133.093Z" fill="url(#paint0_linear_2005_10030)"/>
<path d="M159.645 133.093C132.559 177.565 36.3946 198.051 -15.9997 200.5L-15.9998 437L1734 463.5L1750.62 179.429C1750.62 179.429 1563.74 17.7813 1398.19 70.3583C1355.35 83.9643 1321.29 56.9212 1284.42 49.2251C1257.44 43.5926 1243.14 58.1605 1190.1 51.5125C1122.96 43.0977 1117.84 20.0373 1073.87 23.8178C1040.15 26.7171 1043.12 29.8098 1006.49 50.1959C983.443 63.0265 953.257 66.2723 924.277 61.0696C872.222 51.7242 862.899 -2.18052 811.615 0.689705C760.33 3.55993 751.819 47.0996 719.214 81.2465C700.843 100.487 689.699 100.825 657.013 109.017C617.041 119.035 568.424 39.2304 538.055 47.5235C505.558 56.3978 470.735 51.8816 448.198 46.1307C433.596 42.4045 416.552 24.7163 391.814 28.6661C351.421 35.1153 349.828 65.4205 313.566 75.2926C280.928 84.1783 262.643 84.4821 240.857 81.2466C200.983 75.3248 193.504 77.5026 159.645 133.093Z" fill="url(#paint1_linear_2005_10030)"/>
<defs>
<linearGradient id="paint0_linear_2005_10030" x1="832.336" y1="-1.13687" x2="842.941" y2="537.361" gradientUnits="userSpaceOnUse">
<stop stop-color="#FFA439" stop-opacity="0.24"/>
<stop offset="0.448958" stop-color="white" stop-opacity="0.1"/>
<stop offset="0.97868" stop-color="white"/>
</linearGradient>
<linearGradient id="paint1_linear_2005_10030" x1="791.723" y1="-8.27806" x2="830.806" y2="374.028" gradientUnits="userSpaceOnUse">
<stop stop-color="#FFA439" stop-opacity="0.04"/>
<stop offset="0.575797" stop-color="#FFA439" stop-opacity="0.129955"/>
<stop offset="1" stop-color="#FFA439" stop-opacity="0"/>
</linearGradient>
</defs>
</svg>
