<svg width="48" height="48" viewBox="0 0 48 48" fill="none" xmlns="http://www.w3.org/2000/svg">
<rect width="48" height="48" rx="24" fill="#FFA439"/>
<path d="M28.1667 30.6668H19.8334C17.3334 30.6668 15.6667 29.0002 15.6667 26.5002V21.5002C15.6667 19.0002 17.3334 17.3335 19.8334 17.3335H28.1667C30.6667 17.3335 32.3334 19.0002 32.3334 21.5002V26.5002C32.3334 29.0002 30.6667 30.6668 28.1667 30.6668Z" stroke="white" stroke-miterlimit="10" stroke-linecap="round" stroke-linejoin="round"/>
<path d="M23.5 21.9168L25.5833 23.1668C26.3333 23.6668 26.3333 24.4168 25.5833 24.9168L23.5 26.1668C22.6667 26.6668 22 26.2501 22 25.3334V22.8334C22 21.7501 22.6667 21.4168 23.5 21.9168Z" stroke="white" stroke-miterlimit="10" stroke-linecap="round" stroke-linejoin="round"/>
</svg>
