<svg width="33" height="29" viewBox="0 0 33 29" fill="none" xmlns="http://www.w3.org/2000/svg">
<path d="M31.8652 15.7021L19.8845 28.1182C19.6348 28.377 19.296 28.5225 18.9427 28.5225C18.5895 28.5225 18.2507 28.377 18.0009 28.1182C17.7511 27.8593 17.6108 27.5082 17.6108 27.1421C17.6108 26.7761 17.7511 26.425 18.0009 26.1661L27.7103 16.1056H1.63729C1.28424 16.1056 0.945648 15.9603 0.696003 15.7016C0.446356 15.4429 0.306107 15.092 0.306107 14.7261C0.306107 14.3602 0.446356 14.0093 0.696003 13.7506C0.945648 13.4919 1.28424 13.3465 1.63729 13.3465H27.7103L18.0009 3.28606C17.7511 3.02719 17.6108 2.6761 17.6108 2.31002C17.6108 1.94393 17.7511 1.59284 18.0009 1.33398C18.2507 1.07511 18.5895 0.929688 18.9427 0.929688C19.296 0.929688 19.6348 1.07511 19.8845 1.33398L31.8652 13.75C31.989 13.8782 32.0872 14.0303 32.1542 14.1978C32.2212 14.3653 32.2556 14.5448 32.2556 14.7261C32.2556 14.9074 32.2212 15.0869 32.1542 15.2544C32.0872 15.4218 31.989 15.574 31.8652 15.7021Z" fill="#FF6900"/>
</svg>
