<svg width="1440" height="710" viewBox="0 0 1440 710" fill="none" xmlns="http://www.w3.org/2000/svg">
<path opacity="0.1" d="M1292.49 324.588C1313.61 361.242 1403.9 376.451 1446.41 379.473L1446.41 554.238L-8.74924e-05 551L-0.00012091 216C-0.00012091 216 214.173 99.9791 287.098 132.913C325.97 150.468 366.096 125.897 396.191 120.374C418.216 116.331 429.541 128.445 472.751 124.092C527.445 118.582 532.061 99.9535 567.699 103.891C595.029 106.911 592.556 109.364 621.899 126.644C640.366 137.519 664.819 140.75 688.458 137.097C730.92 130.533 739.555 86.9369 781.151 90.2795C822.746 93.6221 828.8 129.152 854.607 157.528C869.148 173.517 878.193 174.011 904.578 181.309C936.844 190.234 962.34 240.293 986.841 247.628C1013.06 255.476 1041.43 252.495 1059.85 248.269C1071.78 245.53 1085.97 231.5 1105.99 235.196C1138.67 241.231 1139.36 265.875 1168.62 274.608C1194.95 282.469 1209.8 283.076 1227.55 280.878C1260.05 276.855 1266.09 278.771 1292.49 324.588Z" fill="white"/>
<path d="M1292.49 324.588C1313.61 361.242 1403.9 376.451 1446.41 379.473L1446.41 554.238L-8.74924e-05 551L-0.00012091 216C-0.00012091 216 214.173 99.9791 287.098 132.913C325.97 150.468 366.096 125.897 396.191 120.374C418.216 116.331 429.541 128.445 472.751 124.092C527.445 118.582 532.061 99.9536 567.699 103.891C595.029 106.911 592.556 109.364 621.899 126.644C640.366 137.519 664.819 140.751 688.458 137.097C730.92 130.533 739.555 86.9369 781.151 90.2795C822.746 93.6221 828.8 129.152 854.607 157.528C869.148 173.517 878.193 174.011 904.578 181.309C936.844 190.234 962.34 240.293 986.841 247.628C1013.06 255.476 1041.43 252.495 1059.85 248.269C1071.78 245.53 1085.97 231.501 1105.99 235.196C1138.67 241.231 1139.36 265.875 1168.62 274.609C1194.95 282.469 1210.36 285.828 1227.55 280.878C1277.5 266.5 1266.09 278.771 1292.49 324.588Z" fill="white"/>
<path d="M1292.49 324.588C1313.61 361.242 1403.9 376.451 1446.41 379.473L1446.41 554.238L-8.74924e-05 551L-0.00012091 216C-0.00012091 216 214.173 99.9791 287.098 132.913C325.97 150.468 366.096 125.897 396.191 120.374C418.216 116.331 429.541 128.445 472.751 124.092C527.445 118.582 532.061 99.9536 567.699 103.891C595.029 106.911 592.556 109.364 621.899 126.644C640.366 137.519 664.819 140.751 688.458 137.097C730.92 130.533 739.555 86.9369 781.151 90.2795C822.746 93.6221 828.8 129.152 854.607 157.528C869.148 173.517 878.193 174.011 904.578 181.309C936.844 190.234 962.34 240.293 986.841 247.628C1013.06 255.476 1041.43 252.495 1059.85 248.269C1071.78 245.53 1085.97 231.501 1105.99 235.196C1138.67 241.231 1139.36 265.875 1168.62 274.609C1194.95 282.469 1210.36 285.828 1227.55 280.878C1277.5 266.5 1266.09 278.771 1292.49 324.588Z" fill="url(#paint0_linear_2005_11788)"/>
<path d="M1452.92 388.558C1409.58 385.55 1317.54 369.815 1296.17 330.947C1269.46 282.361 1281.25 274.936 1248.08 279.37C1229.95 281.793 1201.45 293.552 1168.77 279.746C1140.68 267.88 1139.66 243.063 1106.35 236.805C1085.96 232.972 1071.03 246.558 1059.22 250.926C1048.26 254.986 1011.46 258.815 984.753 250.597C959.794 242.918 934.027 189.818 901.156 180.484C874.275 172.852 865.051 172.37 850.295 155.441C824.106 125.396 818.102 87.649 775.686 84.2961C733.271 80.9431 724.252 127.337 680.904 134.521C656.771 138.52 631.843 135.202 613.057 123.728C583.208 105.498 585.742 102.878 557.876 99.7995C521.541 95.785 516.742 115.613 460.922 121.736C416.822 126.573 402.094 103.397 346.969 130.321C291.488 157.42 218.24 92.7697 129.446 146.017C58.4118 188.614 -6.49057 222.652 -6.49057 222.652" stroke="#87037B" stroke-opacity="0.1" stroke-width="2.43725" stroke-linecap="round"/>
<g filter="url(#filter0_d_2005_11788)">
<ellipse cx="12.5924" cy="12.9986" rx="12.5924" ry="12.9986" transform="matrix(-1 0 0 1 794.477 76.2429)" fill="#FFA439"/>
</g>
<g filter="url(#filter1_d_2005_11788)">
<ellipse cx="12.9986" cy="12.5924" rx="12.9986" ry="12.5924" transform="matrix(-1 0 0 1 212.788 113.614)" fill="#87037B"/>
</g>
<g filter="url(#filter2_d_2005_11788)">
<path d="M757.049 89.0249C756.895 102.875 767.997 114.227 781.847 114.382C795.697 114.536 807.049 103.434 807.204 89.5842C807.358 75.7344 796.256 64.3817 782.406 64.2272C768.556 64.0728 757.204 75.1751 757.049 89.0249ZM794.892 89.4469C794.814 96.4972 789.034 102.149 781.984 102.07C774.934 101.992 769.282 96.2124 769.361 89.1622C769.439 82.1119 775.219 76.4602 782.269 76.5388C789.319 76.6175 794.971 82.3966 794.892 89.4469Z" fill="white"/>
</g>
<g filter="url(#filter3_d_2005_11788)">
<path d="M174.685 125.869C174.531 139.719 185.633 151.071 199.483 151.226C213.333 151.38 224.685 140.278 224.84 126.428C224.994 112.578 213.892 101.226 200.042 101.071C186.192 100.917 174.84 112.019 174.685 125.869ZM212.528 126.291C212.45 133.341 206.671 138.993 199.62 138.914C192.57 138.835 186.918 133.056 186.997 126.006C187.076 118.956 192.855 113.304 199.905 113.383C206.955 113.461 212.607 119.241 212.528 126.291Z" fill="white"/>
</g>
<defs>
<filter id="filter0_d_2005_11788" x="761.168" y="69.7436" width="41.4331" height="42.2456" filterUnits="userSpaceOnUse" color-interpolation-filters="sRGB">
<feFlood flood-opacity="0" result="BackgroundImageFix"/>
<feColorMatrix in="SourceAlpha" type="matrix" values="0 0 0 0 0 0 0 0 0 0 0 0 0 0 0 0 0 0 127 0" result="hardAlpha"/>
<feOffset dy="1.62483"/>
<feGaussianBlur stdDeviation="4.06208"/>
<feComposite in2="hardAlpha" operator="out"/>
<feColorMatrix type="matrix" values="0 0 0 0 0.486275 0 0 0 0 0.552941 0 0 0 0 0.709804 0 0 0 0.12 0"/>
<feBlend mode="normal" in2="BackgroundImageFix" result="effect1_dropShadow_2005_11788"/>
<feBlend mode="normal" in="SourceGraphic" in2="effect1_dropShadow_2005_11788" result="shape"/>
</filter>
<filter id="filter1_d_2005_11788" x="178.666" y="107.115" width="42.2456" height="41.4332" filterUnits="userSpaceOnUse" color-interpolation-filters="sRGB">
<feFlood flood-opacity="0" result="BackgroundImageFix"/>
<feColorMatrix in="SourceAlpha" type="matrix" values="0 0 0 0 0 0 0 0 0 0 0 0 0 0 0 0 0 0 127 0" result="hardAlpha"/>
<feOffset dy="1.62483"/>
<feGaussianBlur stdDeviation="4.06208"/>
<feComposite in2="hardAlpha" operator="out"/>
<feColorMatrix type="matrix" values="0 0 0 0 0.486275 0 0 0 0 0.552941 0 0 0 0 0.709804 0 0 0 0.12 0"/>
<feBlend mode="normal" in2="BackgroundImageFix" result="effect1_dropShadow_2005_11788"/>
<feBlend mode="normal" in="SourceGraphic" in2="effect1_dropShadow_2005_11788" result="shape"/>
</filter>
<filter id="filter2_d_2005_11788" x="744.049" y="54.4767" width="76.155" height="76.155" filterUnits="userSpaceOnUse" color-interpolation-filters="sRGB">
<feFlood flood-opacity="0" result="BackgroundImageFix"/>
<feColorMatrix in="SourceAlpha" type="matrix" values="0 0 0 0 0 0 0 0 0 0 0 0 0 0 0 0 0 0 127 0" result="hardAlpha"/>
<feOffset dy="3.24966"/>
<feGaussianBlur stdDeviation="6.49932"/>
<feComposite in2="hardAlpha" operator="out"/>
<feColorMatrix type="matrix" values="0 0 0 0 0.94902 0 0 0 0 0.219608 0 0 0 0 0.278431 0 0 0 0.1 0"/>
<feBlend mode="normal" in2="BackgroundImageFix" result="effect1_dropShadow_2005_11788"/>
<feBlend mode="normal" in="SourceGraphic" in2="effect1_dropShadow_2005_11788" result="shape"/>
</filter>
<filter id="filter3_d_2005_11788" x="161.685" y="91.3206" width="76.155" height="76.155" filterUnits="userSpaceOnUse" color-interpolation-filters="sRGB">
<feFlood flood-opacity="0" result="BackgroundImageFix"/>
<feColorMatrix in="SourceAlpha" type="matrix" values="0 0 0 0 0 0 0 0 0 0 0 0 0 0 0 0 0 0 127 0" result="hardAlpha"/>
<feOffset dy="3.24966"/>
<feGaussianBlur stdDeviation="6.49932"/>
<feComposite in2="hardAlpha" operator="out"/>
<feColorMatrix type="matrix" values="0 0 0 0 0.94902 0 0 0 0 0.219608 0 0 0 0 0.278431 0 0 0 0.1 0"/>
<feBlend mode="normal" in2="BackgroundImageFix" result="effect1_dropShadow_2005_11788"/>
<feBlend mode="normal" in="SourceGraphic" in2="effect1_dropShadow_2005_11788" result="shape"/>
</filter>
<linearGradient id="paint0_linear_2005_11788" x1="779.897" y1="91.5331" x2="763.605" y2="650.791" gradientUnits="userSpaceOnUse">
<stop stop-color="#FF6900" stop-opacity="0.15"/>
<stop offset="0.759842" stop-color="#FF6900" stop-opacity="0"/>
</linearGradient>
</defs>
</svg>
