<svg width="1728" height="1432" viewBox="0 0 1728 1432" fill="none" xmlns="http://www.w3.org/2000/svg">
<path d="M1529.42 653.704C1559.65 697.087 1681.84 708.301 1739.16 708.484L1747.9 923.718L-188.966 1043.62L-194.028 627.472C-194.028 627.472 67.9967 466.86 167.718 501.349C220.874 519.733 273.609 486.131 313.806 476.823C343.225 470.011 359.061 483.987 416.955 475.028C490.236 463.688 495.512 440.362 543.637 442.245C580.543 443.688 577.341 446.915 617.666 465.753C643.046 477.609 676.093 479.553 707.702 473.085C764.48 461.467 773.913 407.056 830.02 407.71C886.127 408.363 896.045 451.616 932.171 484.415C952.526 502.896 964.715 502.751 1000.56 509.543C1044.4 517.848 1081.2 577.376 1114.51 584.369C1150.17 591.852 1188.17 585.819 1212.73 579.08C1228.64 574.714 1247.03 556.254 1274.13 559.14C1318.38 563.851 1320.55 594.144 1360.33 602.464C1396.13 609.952 1416.13 609.464 1439.9 605.279C1483.41 597.618 1491.62 599.476 1529.42 653.704Z" fill="white"/>
<path d="M1529.5 655.706C1559.74 699.089 1594.48 586.751 1651.8 586.935C1680.97 581.97 1698.12 637.682 1729.86 670.014C1761.6 702.346 1866.1 655.108 1914.38 627.447L1941.9 789.121L-107.395 1137.95L-193.946 629.474C-193.946 629.474 -110.17 585.117 -18.7622 530.382C95.4984 461.962 195.512 531.251 267.233 495.647C338.493 460.271 359.142 485.988 417.036 477.029C490.317 465.689 495.594 442.364 543.718 444.246C580.624 445.69 577.422 448.917 617.748 467.755C643.128 479.611 676.174 481.555 707.783 475.087C764.561 463.468 773.994 409.058 830.101 409.711C886.209 410.365 896.126 453.618 932.252 486.417C952.608 504.897 964.796 504.753 1000.65 511.544C1044.49 519.85 1081.28 579.378 1114.59 586.371C1150.25 593.854 1198.56 586.618 1212.81 581.082C1228.14 575.125 1247.11 558.256 1274.21 561.141C1318.46 565.852 1321.12 594.513 1358.78 606.115C1402.61 619.615 1439.57 603.828 1463.34 599.642C1506.85 591.981 1491.7 601.478 1529.5 655.706Z" fill="url(#paint0_linear_2005_10513)"/>
<path d="M-193.947 629.474C-193.947 629.474 -110.17 585.117 -18.7621 530.382C95.4984 461.962 195.512 531.251 267.233 495.647C338.493 460.271 359.142 485.988 417.036 477.029C490.317 465.689 495.594 442.364 543.718 444.246C580.624 445.69 577.422 448.917 617.748 467.755C643.128 479.611 676.174 481.555 707.783 475.087C764.561 463.468 773.994 409.058 830.101 409.711C886.209 410.365 896.126 453.618 932.252 486.417C952.608 504.897 964.796 504.753 1000.65 511.544C1044.49 519.85 1081.28 579.378 1114.59 586.371C1150.25 593.854 1198.56 586.618 1212.81 581.082C1228.14 575.125 1247.11 558.256 1274.21 561.141C1318.46 565.852 1321.12 594.513 1358.78 606.115C1402.61 619.615 1439.57 603.828 1463.34 599.642C1506.85 591.981 1491.7 601.478 1529.5 655.706C1559.74 699.089 1594.48 586.751 1651.8 586.935C1680.97 581.97 1698.12 637.682 1729.86 670.014C1761.6 702.346 1866.1 655.108 1914.38 627.447L1941.9 789.121L-107.395 1137.95L-194.095 628.603" stroke="#87037B" stroke-opacity="0.1" stroke-width="3" stroke-linecap="round"/>
<g filter="url(#filter0_d_2005_10513)">
<circle cx="20.9429" cy="20.9429" r="20.9429" transform="matrix(-0.998089 0.0617883 0.040563 0.999177 848.675 388.688)" fill="#FFA439"/>
</g>
<g filter="url(#filter1_d_2005_10513)">
<ellipse cx="17.5149" cy="15.5212" rx="17.5149" ry="15.5212" transform="matrix(-0.998089 0.0617883 0.040563 0.999177 66.8979 485.768)" fill="#87037B"/>
</g>
<g filter="url(#filter2_d_2005_10513)">
<path d="M792.069 413.042C792.594 431.536 809.386 445.683 829.574 444.64C849.763 443.597 865.703 427.758 865.178 409.264C864.653 390.77 847.861 376.624 827.672 377.667C807.484 378.71 791.543 394.548 792.069 413.042ZM847.232 410.192C847.499 419.606 839.384 427.669 829.107 428.2C818.83 428.731 810.282 421.529 810.015 412.115C809.748 402.7 817.862 394.638 828.139 394.107C838.416 393.576 846.964 400.777 847.232 410.192Z" fill="white"/>
</g>
<g filter="url(#filter3_d_2005_10513)">
<path d="M16.2679 504.033C16.7526 521.103 32.2513 534.16 50.8851 533.197C69.5189 532.234 84.2316 517.616 83.7468 500.546C83.2621 483.476 67.7635 470.419 49.1297 471.382C30.4959 472.345 15.7831 486.963 16.2679 504.033ZM67.1826 501.402C67.4293 510.092 59.9398 517.533 50.4542 518.023C40.9686 518.513 33.0789 511.867 32.8322 503.177C32.5854 494.488 40.075 487.046 49.5606 486.556C59.0462 486.066 66.9358 492.713 67.1826 501.402Z" fill="white"/>
</g>
<g filter="url(#filter4_d_2005_10513)">
<ellipse cx="12" cy="12" rx="12" ry="12" transform="matrix(-0.998089 0.0617883 0.040563 0.999177 661.941 1339.35)" fill="#87037B"/>
</g>
<g filter="url(#filter5_d_2005_10513)">
<path d="M672.512 1352.61C672.804 1340.05 662.974 1329.88 650.556 1329.88C638.138 1329.88 627.835 1340.05 627.543 1352.61C627.251 1365.16 637.081 1375.33 649.499 1375.33C661.917 1375.33 672.22 1365.16 672.512 1352.61ZM638.582 1352.61C638.73 1346.22 643.975 1341.04 650.296 1341.04C656.618 1341.04 661.622 1346.22 661.473 1352.61C661.325 1358.99 656.08 1364.17 649.759 1364.17C643.437 1364.17 638.433 1358.99 638.582 1352.61Z" fill="white"/>
</g>
<g filter="url(#filter6_d_2005_10513)">
<ellipse cx="12" cy="12" rx="12" ry="12" transform="matrix(-0.998089 0.0617883 0.040563 0.999177 160.768 1186.25)" fill="#FF6900"/>
</g>
<g filter="url(#filter7_d_2005_10513)">
<path d="M171.339 1199.5C171.631 1186.95 161.801 1176.78 149.383 1176.78C136.965 1176.78 126.662 1186.95 126.37 1199.5C126.078 1212.06 135.908 1222.23 148.326 1222.23C160.744 1222.23 171.047 1212.06 171.339 1199.5ZM137.409 1199.5C137.557 1193.11 142.802 1187.94 149.123 1187.94C155.445 1187.94 160.449 1193.11 160.3 1199.5C160.152 1205.89 154.907 1211.07 148.586 1211.07C142.264 1211.07 137.26 1205.89 137.409 1199.5Z" fill="white"/>
</g>
<rect x="-38.8628" y="1080.98" width="2123.91" height="104" transform="rotate(-9.6602 -38.8628 1080.98)" fill="white"/>
<defs>
<filter id="filter0_d_2005_10513" x="793.739" y="378.772" width="69.7647" height="69.8565" filterUnits="userSpaceOnUse" color-interpolation-filters="sRGB">
<feFlood flood-opacity="0" result="BackgroundImageFix"/>
<feColorMatrix in="SourceAlpha" type="matrix" values="0 0 0 0 0 0 0 0 0 0 0 0 0 0 0 0 0 0 127 0" result="hardAlpha"/>
<feOffset dy="2.79239"/>
<feGaussianBlur stdDeviation="6.98096"/>
<feComposite in2="hardAlpha" operator="out"/>
<feColorMatrix type="matrix" values="0 0 0 0 0.486275 0 0 0 0 0.552941 0 0 0 0 0.709804 0 0 0 0.12 0"/>
<feBlend mode="normal" in2="BackgroundImageFix" result="effect1_dropShadow_2005_10513"/>
<feBlend mode="normal" in="SourceGraphic" in2="effect1_dropShadow_2005_10513" result="shape"/>
</filter>
<filter id="filter1_d_2005_10513" x="22.5532" y="478.812" width="54.9858" height="51.0933" filterUnits="userSpaceOnUse" color-interpolation-filters="sRGB">
<feFlood flood-opacity="0" result="BackgroundImageFix"/>
<feColorMatrix in="SourceAlpha" type="matrix" values="0 0 0 0 0 0 0 0 0 0 0 0 0 0 0 0 0 0 127 0" result="hardAlpha"/>
<feOffset dy="2"/>
<feGaussianBlur stdDeviation="5"/>
<feComposite in2="hardAlpha" operator="out"/>
<feColorMatrix type="matrix" values="0 0 0 0 0.486275 0 0 0 0 0.552941 0 0 0 0 0.709804 0 0 0 0.12 0"/>
<feBlend mode="normal" in2="BackgroundImageFix" result="effect1_dropShadow_2005_10513"/>
<feBlend mode="normal" in="SourceGraphic" in2="effect1_dropShadow_2005_10513" result="shape"/>
</filter>
<filter id="filter2_d_2005_10513" x="776.056" y="365.612" width="105.134" height="99.0815" filterUnits="userSpaceOnUse" color-interpolation-filters="sRGB">
<feFlood flood-opacity="0" result="BackgroundImageFix"/>
<feColorMatrix in="SourceAlpha" type="matrix" values="0 0 0 0 0 0 0 0 0 0 0 0 0 0 0 0 0 0 127 0" result="hardAlpha"/>
<feOffset dy="4"/>
<feGaussianBlur stdDeviation="8"/>
<feComposite in2="hardAlpha" operator="out"/>
<feColorMatrix type="matrix" values="0 0 0 0 0.94902 0 0 0 0 0.219608 0 0 0 0 0.278431 0 0 0 0.1 0"/>
<feBlend mode="normal" in2="BackgroundImageFix" result="effect1_dropShadow_2005_10513"/>
<feBlend mode="normal" in="SourceGraphic" in2="effect1_dropShadow_2005_10513" result="shape"/>
</filter>
<filter id="filter3_d_2005_10513" x="0.256348" y="459.332" width="99.502" height="93.915" filterUnits="userSpaceOnUse" color-interpolation-filters="sRGB">
<feFlood flood-opacity="0" result="BackgroundImageFix"/>
<feColorMatrix in="SourceAlpha" type="matrix" values="0 0 0 0 0 0 0 0 0 0 0 0 0 0 0 0 0 0 127 0" result="hardAlpha"/>
<feOffset dy="4"/>
<feGaussianBlur stdDeviation="8"/>
<feComposite in2="hardAlpha" operator="out"/>
<feColorMatrix type="matrix" values="0 0 0 0 0.94902 0 0 0 0 0.219608 0 0 0 0 0.278431 0 0 0 0.1 0"/>
<feBlend mode="normal" in2="BackgroundImageFix" result="effect1_dropShadow_2005_10513"/>
<feBlend mode="normal" in="SourceGraphic" in2="effect1_dropShadow_2005_10513" result="shape"/>
</filter>
<filter id="filter4_d_2005_10513" x="630.519" y="1333.72" width="39.8624" height="39.9146" filterUnits="userSpaceOnUse" color-interpolation-filters="sRGB">
<feFlood flood-opacity="0" result="BackgroundImageFix"/>
<feColorMatrix in="SourceAlpha" type="matrix" values="0 0 0 0 0 0 0 0 0 0 0 0 0 0 0 0 0 0 127 0" result="hardAlpha"/>
<feOffset dy="1.58878"/>
<feGaussianBlur stdDeviation="3.97194"/>
<feComposite in2="hardAlpha" operator="out"/>
<feColorMatrix type="matrix" values="0 0 0 0 0.486275 0 0 0 0 0.552941 0 0 0 0 0.709804 0 0 0 0.12 0"/>
<feBlend mode="normal" in2="BackgroundImageFix" result="effect1_dropShadow_2005_10513"/>
<feBlend mode="normal" in="SourceGraphic" in2="effect1_dropShadow_2005_10513" result="shape"/>
</filter>
<filter id="filter5_d_2005_10513" x="614.826" y="1320.35" width="70.4024" height="70.875" filterUnits="userSpaceOnUse" color-interpolation-filters="sRGB">
<feFlood flood-opacity="0" result="BackgroundImageFix"/>
<feColorMatrix in="SourceAlpha" type="matrix" values="0 0 0 0 0 0 0 0 0 0 0 0 0 0 0 0 0 0 127 0" result="hardAlpha"/>
<feOffset dy="3.17756"/>
<feGaussianBlur stdDeviation="6.35511"/>
<feComposite in2="hardAlpha" operator="out"/>
<feColorMatrix type="matrix" values="0 0 0 0 0.94902 0 0 0 0 0.219608 0 0 0 0 0.278431 0 0 0 0.1 0"/>
<feBlend mode="normal" in2="BackgroundImageFix" result="effect1_dropShadow_2005_10513"/>
<feBlend mode="normal" in="SourceGraphic" in2="effect1_dropShadow_2005_10513" result="shape"/>
</filter>
<filter id="filter6_d_2005_10513" x="129.347" y="1180.62" width="39.8624" height="39.9146" filterUnits="userSpaceOnUse" color-interpolation-filters="sRGB">
<feFlood flood-opacity="0" result="BackgroundImageFix"/>
<feColorMatrix in="SourceAlpha" type="matrix" values="0 0 0 0 0 0 0 0 0 0 0 0 0 0 0 0 0 0 127 0" result="hardAlpha"/>
<feOffset dy="1.58878"/>
<feGaussianBlur stdDeviation="3.97194"/>
<feComposite in2="hardAlpha" operator="out"/>
<feColorMatrix type="matrix" values="0 0 0 0 0.486275 0 0 0 0 0.552941 0 0 0 0 0.709804 0 0 0 0.12 0"/>
<feBlend mode="normal" in2="BackgroundImageFix" result="effect1_dropShadow_2005_10513"/>
<feBlend mode="normal" in="SourceGraphic" in2="effect1_dropShadow_2005_10513" result="shape"/>
</filter>
<filter id="filter7_d_2005_10513" x="113.654" y="1167.24" width="70.4024" height="70.875" filterUnits="userSpaceOnUse" color-interpolation-filters="sRGB">
<feFlood flood-opacity="0" result="BackgroundImageFix"/>
<feColorMatrix in="SourceAlpha" type="matrix" values="0 0 0 0 0 0 0 0 0 0 0 0 0 0 0 0 0 0 127 0" result="hardAlpha"/>
<feOffset dy="3.17756"/>
<feGaussianBlur stdDeviation="6.35511"/>
<feComposite in2="hardAlpha" operator="out"/>
<feColorMatrix type="matrix" values="0 0 0 0 0.94902 0 0 0 0 0.219608 0 0 0 0 0.278431 0 0 0 0.1 0"/>
<feBlend mode="normal" in2="BackgroundImageFix" result="effect1_dropShadow_2005_10513"/>
<feBlend mode="normal" in="SourceGraphic" in2="effect1_dropShadow_2005_10513" result="shape"/>
</filter>
<linearGradient id="paint0_linear_2005_10513" x1="897.531" y1="412.32" x2="929.277" y2="919.021" gradientUnits="userSpaceOnUse">
<stop stop-color="#FF6900" stop-opacity="0.1"/>
<stop offset="1" stop-color="#D9D9D9" stop-opacity="0"/>
</linearGradient>
</defs>
</svg>
