<svg width="1728" height="867" viewBox="0 0 1728 867" fill="none" xmlns="http://www.w3.org/2000/svg">
<path opacity="0.1" d="M1557.53 392.561C1583.58 437.774 1694.96 456.535 1747.39 460.264L1747.39 675.843L-36.8124 671.849L-36.8125 258.613C-36.8125 258.613 227.378 115.496 317.335 156.122C365.285 177.777 414.782 147.467 451.905 140.654C479.074 135.667 493.044 150.61 546.345 145.24C613.813 138.443 619.507 115.465 663.467 120.322C697.18 124.047 694.13 127.073 730.325 148.388C753.106 161.803 783.269 165.789 812.429 161.282C864.808 153.186 875.459 99.4081 926.769 103.531C978.079 107.655 985.546 151.482 1017.38 186.485C1035.32 206.208 1046.47 206.818 1079.02 215.82C1118.82 226.83 1150.27 288.579 1180.5 297.627C1212.84 307.308 1247.84 303.631 1270.55 298.417C1285.27 295.039 1302.78 277.733 1327.47 282.292C1367.78 289.736 1368.64 320.136 1404.73 330.909C1437.21 340.605 1455.52 341.354 1477.43 338.643C1517.52 333.68 1524.96 336.044 1557.53 392.561Z" fill="white"/>
<path d="M1632.5 322C1658.55 367.214 1694.96 318.271 1747.39 322L1747.39 675.843L-36.8124 671.849L-36.8125 258.613C-36.8125 258.613 227.378 115.496 317.335 156.122C365.285 177.777 414.782 147.467 451.905 140.654C479.074 135.667 493.044 150.61 546.345 145.24C613.813 138.443 619.507 115.465 663.467 120.322C697.18 124.047 694.13 127.073 730.325 148.388C753.106 161.803 783.269 165.789 812.429 161.282C864.808 153.186 875.459 99.4081 926.769 103.531C978.079 107.655 985.546 151.482 1017.38 186.485C1035.32 206.208 1046.47 206.818 1079.02 215.82C1118.82 226.83 1150.27 288.579 1180.5 297.627C1212.84 307.308 1245.78 228.213 1268.5 223C1283.22 219.622 1293.81 211.262 1318.5 215.82C1358.81 223.264 1363.41 286.854 1399.5 297.627C1431.98 307.323 1479.29 273.106 1500.5 267C1562.11 249.264 1599.93 265.483 1632.5 322Z" fill="white"/>
<path d="M1632.5 322C1658.55 367.214 1694.96 318.271 1747.39 322L1747.39 675.843L-36.8124 671.849L-36.8125 258.613C-36.8125 258.613 227.378 115.496 317.335 156.122C365.285 177.777 414.782 147.467 451.905 140.654C479.074 135.667 493.044 150.61 546.345 145.24C613.813 138.443 619.507 115.465 663.467 120.322C697.18 124.047 694.13 127.073 730.325 148.388C753.106 161.803 783.269 165.789 812.429 161.282C864.808 153.186 875.459 99.4081 926.769 103.531C978.079 107.655 985.546 151.482 1017.38 186.485C1035.32 206.208 1046.47 206.818 1079.02 215.82C1118.82 226.83 1150.27 288.579 1180.5 297.627C1212.84 307.308 1245.78 228.213 1268.5 223C1283.22 219.622 1293.81 211.262 1318.5 215.82C1358.81 223.264 1363.41 286.854 1399.5 297.627C1431.98 307.323 1479.29 273.106 1500.5 267C1562.11 249.264 1599.93 265.483 1632.5 322Z" fill="url(#paint0_linear_2035_7129)"/>
<path d="M1747 324C1694.57 320.271 1660 363.5 1637.5 330C1601.13 275.85 1578 251.5 1504.5 267C1482.9 271.554 1433.1 311.699 1393.5 295.5C1359.47 281.579 1359.81 223.265 1319.5 215.821C1294.81 211.262 1276.75 220.497 1262.5 225.5C1249.26 230.15 1212.84 307.308 1180.5 297.627C1150.27 288.58 1118.82 226.83 1079.02 215.821C1046.47 206.818 1035.32 206.208 1017.38 186.486C985.546 151.482 978.079 107.655 926.769 103.532C875.459 99.4085 864.808 153.186 812.429 161.282C783.269 165.79 753.106 161.804 730.325 148.388C694.131 127.074 697.18 124.047 663.467 120.322C619.507 115.465 613.813 138.443 546.345 145.241C493.044 150.61 475.107 123.64 408.595 154.576C341.653 185.711 252.722 110.3 145.641 171.59C59.9765 220.623 -18.3198 259.757 -18.3198 259.757" stroke="#87037B" stroke-opacity="0.1" stroke-width="2.43725" stroke-linecap="round"/>
<g filter="url(#filter0_d_2035_7129)">
<ellipse cx="15.5333" cy="16.0344" rx="15.5333" ry="16.0344" transform="matrix(-1 0 0 1 943.208 86.2166)" fill="#FFA439"/>
</g>
<g filter="url(#filter1_d_2035_7129)">
<ellipse cx="16.0344" cy="15.5333" rx="16.0344" ry="15.5333" transform="matrix(-1 0 0 1 225.67 132.315)" fill="#87037B"/>
</g>
<g filter="url(#filter2_d_2035_7129)">
<path d="M897.039 101.984C896.848 119.068 910.543 133.072 927.628 133.262C944.712 133.453 958.716 119.758 958.907 102.674C959.097 85.5892 945.402 71.5852 928.318 71.3947C911.233 71.2042 897.229 84.8993 897.039 101.984ZM943.72 102.504C943.623 111.201 936.494 118.173 927.797 118.076C919.1 117.979 912.129 110.85 912.226 102.153C912.323 93.4561 919.451 86.4846 928.148 86.5816C936.845 86.6786 943.817 93.8074 943.72 102.504Z" fill="white"/>
</g>
<g filter="url(#filter3_d_2035_7129)">
<path d="M178.669 147.432C178.479 164.516 192.174 178.52 209.258 178.711C226.342 178.901 240.346 165.206 240.537 148.122C240.727 131.038 227.032 117.034 209.948 116.843C192.864 116.653 178.86 130.348 178.669 147.432ZM225.35 147.953C225.253 156.649 218.124 163.621 209.427 163.524C200.731 163.427 193.759 156.298 193.856 147.601C193.953 138.905 201.082 131.933 209.779 132.03C218.475 132.127 225.447 139.256 225.35 147.953Z" fill="white"/>
</g>
<defs>
<filter id="filter0_d_2035_7129" x="904.017" y="79.7172" width="47.3147" height="48.317" filterUnits="userSpaceOnUse" color-interpolation-filters="sRGB">
<feFlood flood-opacity="0" result="BackgroundImageFix"/>
<feColorMatrix in="SourceAlpha" type="matrix" values="0 0 0 0 0 0 0 0 0 0 0 0 0 0 0 0 0 0 127 0" result="hardAlpha"/>
<feOffset dy="1.62483"/>
<feGaussianBlur stdDeviation="4.06208"/>
<feComposite in2="hardAlpha" operator="out"/>
<feColorMatrix type="matrix" values="0 0 0 0 0.486275 0 0 0 0 0.552941 0 0 0 0 0.709804 0 0 0 0.12 0"/>
<feBlend mode="normal" in2="BackgroundImageFix" result="effect1_dropShadow_2035_7129"/>
<feBlend mode="normal" in="SourceGraphic" in2="effect1_dropShadow_2035_7129" result="shape"/>
</filter>
<filter id="filter1_d_2035_7129" x="185.477" y="125.816" width="48.3172" height="47.3149" filterUnits="userSpaceOnUse" color-interpolation-filters="sRGB">
<feFlood flood-opacity="0" result="BackgroundImageFix"/>
<feColorMatrix in="SourceAlpha" type="matrix" values="0 0 0 0 0 0 0 0 0 0 0 0 0 0 0 0 0 0 127 0" result="hardAlpha"/>
<feOffset dy="1.62483"/>
<feGaussianBlur stdDeviation="4.06208"/>
<feComposite in2="hardAlpha" operator="out"/>
<feColorMatrix type="matrix" values="0 0 0 0 0.486275 0 0 0 0 0.552941 0 0 0 0 0.709804 0 0 0 0.12 0"/>
<feBlend mode="normal" in2="BackgroundImageFix" result="effect1_dropShadow_2035_7129"/>
<feBlend mode="normal" in="SourceGraphic" in2="effect1_dropShadow_2035_7129" result="shape"/>
</filter>
<filter id="filter2_d_2035_7129" x="884.038" y="61.6438" width="87.8689" height="87.8689" filterUnits="userSpaceOnUse" color-interpolation-filters="sRGB">
<feFlood flood-opacity="0" result="BackgroundImageFix"/>
<feColorMatrix in="SourceAlpha" type="matrix" values="0 0 0 0 0 0 0 0 0 0 0 0 0 0 0 0 0 0 127 0" result="hardAlpha"/>
<feOffset dy="3.24966"/>
<feGaussianBlur stdDeviation="6.49932"/>
<feComposite in2="hardAlpha" operator="out"/>
<feColorMatrix type="matrix" values="0 0 0 0 0.94902 0 0 0 0 0.219608 0 0 0 0 0.278431 0 0 0 0.1 0"/>
<feBlend mode="normal" in2="BackgroundImageFix" result="effect1_dropShadow_2035_7129"/>
<feBlend mode="normal" in="SourceGraphic" in2="effect1_dropShadow_2035_7129" result="shape"/>
</filter>
<filter id="filter3_d_2035_7129" x="165.669" y="107.092" width="87.8689" height="87.8689" filterUnits="userSpaceOnUse" color-interpolation-filters="sRGB">
<feFlood flood-opacity="0" result="BackgroundImageFix"/>
<feColorMatrix in="SourceAlpha" type="matrix" values="0 0 0 0 0 0 0 0 0 0 0 0 0 0 0 0 0 0 127 0" result="hardAlpha"/>
<feOffset dy="3.24966"/>
<feGaussianBlur stdDeviation="6.49932"/>
<feComposite in2="hardAlpha" operator="out"/>
<feColorMatrix type="matrix" values="0 0 0 0 0.94902 0 0 0 0 0.219608 0 0 0 0 0.278431 0 0 0 0.1 0"/>
<feBlend mode="normal" in2="BackgroundImageFix" result="effect1_dropShadow_2035_7129"/>
<feBlend mode="normal" in="SourceGraphic" in2="effect1_dropShadow_2035_7129" result="shape"/>
</filter>
<linearGradient id="paint0_linear_2035_7129" x1="925.222" y1="105.078" x2="922" y2="580" gradientUnits="userSpaceOnUse">
<stop stop-color="#FF6900" stop-opacity="0.15"/>
<stop offset="0.759842" stop-color="#FF6900" stop-opacity="0"/>
</linearGradient>
</defs>
</svg>
