<svg width="17" height="14" viewBox="0 0 17 14" fill="none" xmlns="http://www.w3.org/2000/svg">
<path d="M16.7923 7.49522L10.4175 13.7949C10.2846 13.9262 10.1043 14 9.91634 14C9.72838 14 9.54812 13.9262 9.41521 13.7949C9.2823 13.6635 9.20764 13.4854 9.20764 13.2996C9.20764 13.1139 9.2823 12.9358 9.41521 12.8044L14.5814 7.69996H0.70831C0.520455 7.69996 0.340293 7.62621 0.207459 7.49495C0.0746255 7.36368 0 7.18564 0 7C0 6.81436 0.0746255 6.63632 0.207459 6.50505C0.340293 6.37378 0.520455 6.30004 0.70831 6.30004H14.5814L9.41521 1.19557C9.2823 1.06423 9.20764 0.886095 9.20764 0.70035C9.20764 0.514606 9.2823 0.336469 9.41521 0.205128C9.54812 0.0737866 9.72838 0 9.91634 0C10.1043 0 10.2846 0.0737866 10.4175 0.205128L16.7923 6.50478C16.8581 6.56978 16.9104 6.64698 16.946 6.73196C16.9817 6.81693 17 6.90801 17 7C17 7.09198 16.9817 7.18307 16.946 7.26804C16.9104 7.35302 16.8581 7.43021 16.7923 7.49522Z" fill="#87037B"/>
</svg>
