<svg width="61" height="61" viewBox="0 0 61 61" fill="none" xmlns="http://www.w3.org/2000/svg">
<circle cx="30.6752" cy="30.5143" r="29.9159" fill="#1DA1F2"/>
<path d="M44.2303 24.5319C44.2501 24.8189 44.2501 25.106 44.2501 25.393C44.2501 34.1467 37.8342 44.2331 26.1077 44.2331C22.495 44.2331 19.139 43.1466 16.3159 41.2606C16.8292 41.322 17.3227 41.3425 17.8557 41.3425C20.8367 41.3425 23.5808 40.297 25.7721 38.5135C22.9688 38.4519 20.6195 36.5454 19.8101 33.9213C20.205 33.9827 20.5998 34.0237 21.0144 34.0237C21.5869 34.0237 22.1594 33.9417 22.6924 33.7983C19.7707 33.1832 17.5793 30.5181 17.5793 27.2995V27.2175C18.4282 27.7096 19.4153 28.0171 20.4615 28.058C18.744 26.869 17.6188 24.8394 17.6188 22.5433C17.6188 21.3133 17.9346 20.1857 18.4874 19.2017C21.6263 23.2198 26.3446 25.8439 31.6352 26.131C31.5365 25.6389 31.4773 25.1265 31.4773 24.6139C31.4773 20.9648 34.3201 17.9922 37.8538 17.9922C39.6897 17.9922 41.348 18.7917 42.5128 20.0833C43.9539 19.7963 45.3358 19.2427 46.5598 18.4842C46.0859 20.0218 45.0791 21.3133 43.7565 22.1333C45.0397 21.9899 46.2834 21.6208 47.4284 21.1083C46.5599 22.4203 45.4741 23.5888 44.2303 24.5319Z" fill="white"/>
</svg>
