<svg width="60" height="60" viewBox="0 0 60 60" fill="none" xmlns="http://www.w3.org/2000/svg">
<circle cx="29.9159" cy="29.9159" r="29.9159" fill="#4267B2"/>
<path d="M41.2623 16.3417H19.1673C18.3682 16.3417 17.6018 16.6549 17.0368 17.2124C16.4717 17.7699 16.1543 18.5261 16.1543 19.3146V41.1158C16.1543 41.9043 16.4717 42.6604 17.0368 43.218C17.6018 43.7755 18.3682 44.0887 19.1673 44.0887H27.7824V34.6553H23.8279V30.2152H27.7824V26.831C27.7824 22.9818 30.1049 20.8555 33.6621 20.8555C35.3657 20.8555 37.1471 21.1553 37.1471 21.1553V24.9333H35.1843C33.2503 24.9333 32.6471 26.1175 32.6471 27.3321V30.2152H36.9645L36.274 34.6553H32.6471V44.0887H41.2623C42.0614 44.0887 42.8278 43.7755 43.3928 43.218C43.9578 42.6604 44.2753 41.9043 44.2753 41.1158V19.3146C44.2753 18.5261 43.9578 17.7699 43.3928 17.2124C42.8278 16.6549 42.0614 16.3417 41.2623 16.3417Z" fill="white"/>
</svg>
