<svg width="81" height="81" viewBox="0 0 81 81" fill="none" xmlns="http://www.w3.org/2000/svg">
<circle cx="40.8022" cy="40.4209" r="40.1062" fill="#D9D9D9" fill-opacity="0.48"/>
<path d="M23.8573 24.4787C21.6984 24.4787 19.9469 26.1292 19.9469 28.1635C19.9469 29.3226 20.5253 30.4127 21.511 31.1113L39.238 43.6395C40.1667 44.292 41.4376 44.292 42.3663 43.6395L60.0932 31.1113C61.079 30.4127 61.6574 29.3226 61.6574 28.1635C61.6574 26.1292 59.9059 24.4787 57.747 24.4787H23.8573ZM19.9469 33.0765V49.0438C19.9469 51.7536 22.285 53.9568 25.1607 53.9568H56.4436C59.3193 53.9568 61.6574 51.7536 61.6574 49.0438V33.0765L43.9304 45.6047C42.073 46.9174 39.5313 46.9174 37.6739 45.6047L19.9469 33.0765Z" fill="#ACABAB"/>
</svg>
