<svg width="81" height="81" viewBox="0 0 81 81" fill="none" xmlns="http://www.w3.org/2000/svg">
<circle cx="40.2869" cy="40.2231" r="40.1062" fill="#1DA1F2"/>
<path d="M58.4588 32.2029C58.4853 32.5876 58.4853 32.9725 58.4853 33.3572C58.4853 45.0928 49.8839 58.615 34.163 58.615C29.3197 58.615 24.8205 57.1583 21.0359 54.6299C21.724 54.7123 22.3856 54.7398 23.1002 54.7398C27.0965 54.7398 30.7754 53.3381 33.7131 50.947C29.9549 50.8645 26.8055 48.3085 25.7203 44.7906C26.2497 44.873 26.779 44.9279 27.3348 44.9279C28.1023 44.9279 28.8699 44.818 29.5844 44.6257C25.6675 43.8011 22.7296 40.2282 22.7296 35.9132V35.8033C23.8676 36.463 25.1911 36.8752 26.5936 36.9301C24.2911 35.336 22.7826 32.6151 22.7826 29.5369C22.7826 27.8879 23.206 26.3763 23.9471 25.0571C28.1552 30.4439 34.4806 33.9618 41.5734 34.3466C41.4411 33.687 41.3617 33 41.3617 32.3129C41.3617 27.4207 45.1728 23.4355 49.9102 23.4355C52.3715 23.4355 54.5947 24.5074 56.1562 26.2389C58.0882 25.8542 59.9408 25.112 61.5817 24.0952C60.9465 26.1565 59.5967 27.888 57.8236 28.9873C59.5439 28.795 61.2112 28.3002 62.7462 27.6131C61.5819 29.372 60.1262 30.9386 58.4588 32.2029Z" fill="white"/>
</svg>
