<svg width="81" height="81" viewBox="0 0 81 81" fill="none" xmlns="http://www.w3.org/2000/svg">
<circle cx="40.2881" cy="40.2231" r="40.1062" fill="#0072B1"/>
<path d="M57.4766 22.6766H23.0909C21.5153 22.6766 20.2351 23.8124 20.2351 25.2067V55.2394C20.2351 56.6337 21.5153 57.7695 23.0909 57.7695H57.4766C59.0522 57.7695 60.3414 56.6337 60.3414 55.2394V25.2067C60.3414 23.8124 59.0522 22.6766 57.4766 22.6766ZM32.3565 52.7563H26.4122V36.0088H32.3655V52.7563H32.3565ZM29.3843 33.7215C27.4775 33.7215 25.9377 32.3663 25.9377 30.7057C25.9377 29.045 27.4775 27.6899 29.3843 27.6899C31.2822 27.6899 32.831 29.045 32.831 30.7057C32.831 32.3741 31.2912 33.7215 29.3843 33.7215ZM54.6387 52.7563H48.6944V44.6097C48.6944 42.667 48.6497 40.1682 45.6059 40.1682C42.5084 40.1682 42.0339 42.2832 42.0339 44.4687V52.7563H36.0896V36.0088H41.7922V38.2961H41.8728C42.6695 36.9801 44.6122 35.5936 47.5038 35.5936C53.5197 35.5936 54.6387 39.0637 54.6387 43.5757V52.7563Z" fill="white"/>
</svg>
