<svg width="61" height="61" viewBox="0 0 61 61" fill="none" xmlns="http://www.w3.org/2000/svg">
<circle cx="30.1493" cy="30.5143" r="29.9159" fill="#C8232C"/>
<path d="M31.0843 15.9741C23.0911 15.9741 15.1914 20.3704 15.1914 27.4853C15.1914 32.0101 18.2765 34.581 20.1462 34.581C20.9175 34.581 21.3616 32.8071 21.3616 32.3058C21.3616 31.708 19.5152 30.4354 19.5152 27.9481C19.5152 22.7806 24.283 19.117 30.4532 19.117C35.7586 19.117 39.6851 21.6044 39.6851 26.1742C39.6851 29.587 38.0257 35.9886 32.6502 35.9886C30.7103 35.9886 29.0509 34.8317 29.0509 33.1734C29.0509 30.7439 31.1076 28.3916 31.1076 25.8849C31.1076 21.6301 23.7922 22.4014 23.7922 27.5432C23.7922 28.623 23.9558 29.8184 24.5401 30.8018C23.465 34.6196 21.2681 40.3077 21.2681 44.2412C21.2681 45.4559 21.4784 46.6514 21.6187 47.8661C21.8835 48.1104 21.7511 48.0847 22.1562 47.9626C26.0827 43.5278 25.9424 42.6601 27.7187 36.8563C28.677 38.3602 31.1544 39.1701 33.1176 39.1701C41.3912 39.1701 45.1073 32.5179 45.1073 26.5212C45.1073 20.139 38.423 15.9741 31.0843 15.9741Z" fill="white"/>
</svg>
